<svg width="822" height="768" viewBox="0 0 822 768" fill="none" xmlns="http://www.w3.org/2000/svg">
<mask id="mask0_6297_12597" style="mask-type:alpha" maskUnits="userSpaceOnUse" x="0" y="0" width="822" height="768">
<rect width="822" height="767.785" transform="matrix(-1 0 0 1 822 0.0859375)" fill="#D9D9D9"/>
</mask>
<g mask="url(#mask0_6297_12597)">
<path fill-rule="evenodd" clip-rule="evenodd" d="M775.219 -55.1415C776.798 -52.9208 782.842 -17.3496 784.465 -0.731033C793.664 93.499 776.08 175.876 734.429 233.661C726.117 245.192 721.304 250.808 705.834 267.024C636.676 339.518 610.704 387.064 611.446 439.814C611.662 455.175 613.424 467.051 619.866 496.591C635.821 569.754 634.914 622.091 616.867 669.735C608.133 692.796 593.019 716.486 575 735.36C552.434 758.997 528.917 775.039 452.504 818.919C428.651 832.617 404.792 846.681 399.485 850.173C371.465 868.607 358.869 882.918 353.826 902.056L352.091 908.643L87.8745 865.857L-12.2155 396.071L-38.4467 55.9217L-46.8707 -55.1434L209.121 -39.8941C447.97 -176.98 774.995 -55.4567 775.219 -55.1415Z" fill="url(#paint0_linear_6297_12597)" fill-opacity="0.2"/>
<path fill-rule="evenodd" clip-rule="evenodd" d="M819.713 -10.1244C820.96 -7.73951 821.856 28.235 821.082 44.9029C816.699 139.413 787.452 219.068 737.866 271.551C727.97 282.024 722.392 287.036 704.727 301.326C625.754 365.211 593.182 409.354 586.357 461.751C584.37 477.009 584.414 488.99 586.568 519.029C591.903 593.429 583.502 645.226 558.776 690.384C546.809 712.242 528.425 733.985 507.851 750.616C482.085 771.444 456.464 784.63 374.398 819.3C348.78 830.123 323.104 841.308 317.341 844.156C286.911 859.193 272.37 871.928 264.625 890.323L261.96 896.653L6.07785 823.641L-25.8387 346.182L-87.1041 -52.7403L256.145 -60.5309C512.655 -168.828 819.536 -10.4629 819.713 -10.1244Z" fill="url(#paint1_linear_6297_12597)" fill-opacity="0.2"/>
<path fill-rule="evenodd" clip-rule="evenodd" d="M778.579 -35.1925C780.016 -32.896 783.838 2.92331 784.423 19.5974C787.745 114.142 765.061 195.506 719.879 251.108C710.862 262.204 705.708 267.569 689.253 282.982C615.692 351.887 586.801 398.053 584.259 450.758C583.519 466.106 584.539 478.052 589.132 507.869C600.509 581.719 596.347 633.929 575.363 680.592C565.207 703.177 548.642 726.071 529.478 744.009C505.476 766.476 480.997 781.311 401.973 821.282C377.305 833.76 352.608 846.603 347.092 849.822C317.968 866.819 304.502 880.476 298.276 899.33L296.133 905.819L-72.2387 821.282L-35.7041 375.741L-40.7259 34.8062L-40.7259 -35.1897C206.281 -160.058 778.375 -35.5185 778.579 -35.1925Z" fill="url(#paint2_linear_6297_12597)"/>
<path fill-rule="evenodd" clip-rule="evenodd" d="M778.579 -35.1925C780.016 -32.896 783.838 2.92331 784.423 19.5974C787.745 114.142 765.061 195.506 719.879 251.108C710.862 262.204 705.708 267.569 689.253 282.982C615.692 351.887 586.801 398.053 584.259 450.758C583.519 466.106 584.539 478.052 589.132 507.869C600.509 581.719 596.347 633.929 575.363 680.592C565.207 703.177 548.642 726.071 529.478 744.009C505.476 766.476 480.997 781.311 401.973 821.282C377.305 833.76 352.608 846.603 347.092 849.822C317.968 866.819 304.502 880.476 298.276 899.33L296.133 905.819L-72.2387 821.282L-35.7041 375.741L-40.7259 34.8062L-40.7259 -35.1897C206.281 -160.058 778.375 -35.5185 778.579 -35.1925Z" fill="url(#paint3_linear_6297_12597)" fill-opacity="0.2"/>
</g>
<defs>
<linearGradient id="paint0_linear_6297_12597" x1="636.692" y1="492.686" x2="323.284" y2="325.976" gradientUnits="userSpaceOnUse">
<stop stop-color="#0073EE"/>
<stop offset="1" stop-color="#2F93FF"/>
</linearGradient>
<linearGradient id="paint1_linear_6297_12597" x1="603.813" y1="517.109" x2="319.441" y2="312.004" gradientUnits="userSpaceOnUse">
<stop stop-color="#0073EE"/>
<stop offset="1" stop-color="#2F93FF"/>
</linearGradient>
<linearGradient id="paint2_linear_6297_12597" x1="606.175" y1="504.822" x2="304.76" y2="320.776" gradientUnits="userSpaceOnUse">
<stop stop-color="#0073EE"/>
<stop offset="1" stop-color="#2F93FF"/>
</linearGradient>
<linearGradient id="paint3_linear_6297_12597" x1="344.474" y1="72.0415" x2="622.18" y2="602.55" gradientUnits="userSpaceOnUse">
<stop stop-color="#E8F3FF"/>
<stop offset="1" stop-color="#007BFF"/>
</linearGradient>
</defs>
</svg>
