<?xml version="1.0" encoding="UTF-8"?>
<svg version="1.1" xmlns="http://www.w3.org/2000/svg" width="1919" height="959">
<path d="M0 0 C633.27 0 1266.54 0 1919 0 C1919 316.47 1919 632.94 1919 959 C1285.73 959 652.46 959 0 959 C0 642.53 0 326.06 0 0 Z " fill="#FEFEFE" transform="translate(0,0)"/>
<path d="M0 0 C323.4 0 646.8 0 980 0 C981.1256232 13.50747835 981.1256232 13.50747835 981.14526367 18.88476562 C981.15483345 20.69986633 981.15483345 20.69986633 981.16459656 22.55163574 C981.16626579 24.4596698 981.16626579 24.4596698 981.16796875 26.40625 C981.17119958 27.77933788 981.17456485 29.15242545 981.17805481 30.5255127 C981.1840031 33.39641105 981.18589971 36.26727953 981.18530273 39.13818359 C981.18522231 42.01748044 981.19203574 44.89661534 981.20581055 47.77587891 C981.32081012 72.21621766 980.38970263 96.4801322 977.25 120.75 C977.16796326 121.39346375 977.08592651 122.03692749 977.00140381 122.69989014 C971.74053614 163.62585508 962.16484742 205.85616586 943.91796875 243.10058594 C942.95883231 245.08518208 942.05355377 247.08830816 941.15625 249.1015625 C932.71734949 267.87773383 922.04114071 285.33207253 910 302 C909.46761719 302.73734375 908.93523438 303.4746875 908.38671875 304.234375 C900.63643719 314.86979787 892.20946134 324.60923175 883 334 C882.29198242 334.72316406 881.58396484 335.44632812 880.85449219 336.19140625 C878.61813098 338.46778964 876.37405916 340.73616384 874.125 343 C873.43567383 343.69416016 872.74634766 344.38832031 872.03613281 345.10351562 C868.82877976 348.30005911 865.58696687 351.39643911 862.1484375 354.34375 C856.99594056 358.78933797 852.27493792 363.65655508 847.5 368.5 C842.05870164 374.01936576 836.65144223 379.48014399 830.71044922 384.46557617 C828.20040121 386.71731065 826.09022916 389.26335964 823.9140625 391.83203125 C821.70774516 394.33102333 819.37316307 396.65910047 817 399 C812.78343022 403.17858266 808.84407621 407.48071679 805 412 C804.10883464 413.02800457 803.21683672 414.05528773 802.32421875 415.08203125 C755.99162139 468.5085415 727.84868294 524.41302246 732.20214844 596.33984375 C732.71594294 602.05556527 733.54550014 607.71672144 734.43457031 613.38476562 C735.68383874 621.37231609 736.83833088 629.37431874 738 637.375 C738.13169586 638.27785736 738.26339172 639.18071472 738.39907837 640.1109314 C740.9520668 657.69929694 742.7311017 675.27586672 744 693 C744.07057617 693.92103516 744.14115234 694.84207031 744.21386719 695.79101562 C744.62194726 701.19321851 744.8716422 706.58409665 745 712 C745.02723145 713.09747559 745.05446289 714.19495117 745.08251953 715.32568359 C745.48508975 734.43890733 744.49446483 753.01973759 742 772 C741.88253418 772.91201172 741.76506836 773.82402344 741.64404297 774.76367188 C738.05156364 801.89290443 730.47234315 828.18238002 719 853 C718.66210449 853.73234863 718.32420898 854.46469727 717.97607422 855.21923828 C701.37069209 890.75492151 675.13502925 921.61805355 644.625 946 C644.02945313 946.48210938 643.43390625 946.96421875 642.8203125 947.4609375 C641.60927633 948.43079274 640.38867783 949.38884957 639.15802341 950.33368685 C637.69126951 951.46623773 636.24282856 952.62282351 634.81167603 953.80004096 C628.45686223 958.72441576 623.92810522 960.010571 615.97743034 959.8613348 C614.371626 959.87344912 614.371626 959.87344912 612.73338116 959.88580817 C609.15284923 959.90430791 605.57452804 959.87297057 601.99411011 959.84178162 C599.40548688 959.84484475 596.81686578 959.85098531 594.22825623 959.85993958 C588.59568985 959.87445782 582.9636426 959.86299975 577.33113647 959.83450592 C568.8471924 959.79172827 560.36356128 959.78992229 551.87952868 959.79576301 C537.66080892 959.80445125 523.44231573 959.78143011 509.22366333 959.73902893 C489.99806618 959.68179793 470.77285634 959.66830686 451.54711914 959.66223145 C405.32303335 959.62547019 359.09901232 959.5277425 312.875 959.4375 C209.62625 959.293125 106.3775 959.14875 0 959 C0 642.53 0 326.06 0 0 Z " fill="#3594FB" transform="translate(0,0)"/>
<path d="M0 0 C15.51 0 31.02 0 47 0 C47.02114778 7.34062828 47.04116127 14.68114199 47.05175018 22.02177429 C47.0569644 25.44242701 47.06389344 28.86305371 47.07543945 32.28369141 C47.14173027 53.50455284 46.79347953 74.47693339 44.3125 95.5625 C44.22730103 96.29546295 44.14210205 97.0284259 44.05432129 97.78359985 C40.01428608 132.19055883 33.12068497 165.78919627 22.67480469 198.84326172 C21.99491581 201.01624954 21.34197181 203.19581963 20.6953125 205.37890625 C20.27626552 206.77350478 19.85700579 208.16803941 19.4375 209.5625 C19.08558594 210.73941406 18.73367188 211.91632813 18.37109375 213.12890625 C17.00886436 217.2496227 15.16048116 221.1284219 13.33618164 225.0612793 C12.01007251 227.97784711 10.77370814 230.91685225 9.5625 233.8828125 C-4.32489904 267.81955115 -22.3396278 298.94499814 -46 327 C-46.89986888 328.08713257 -47.79960179 329.1743777 -48.69921875 330.26171875 C-58.56187911 342.08085802 -69.15500377 353.27516618 -81.2578125 362.828125 C-84.40002197 365.31682652 -87.45039751 367.89944612 -90.5 370.5 C-97.18113195 376.17699712 -103.9555761 381.73488141 -110.77734375 387.2421875 C-116.15021765 391.59775709 -121.34841029 396.08026631 -126.45703125 400.7421875 C-129.13777224 403.12232313 -131.89504134 405.37731841 -134.6875 407.625 C-138.43428645 410.65610814 -141.90677203 413.77133261 -145.24316406 417.24438477 C-146.87739861 418.87748379 -148.55993221 420.35474939 -150.328125 421.83984375 C-156.21837017 426.96026801 -161.6753671 432.5262786 -167.18188477 438.05151367 C-169.05829475 439.93328274 -170.93998969 441.80964738 -172.82226562 443.68554688 C-178.76296204 449.62284968 -184.56654347 455.58922756 -190 462 C-190.88945313 462.97324219 -191.77890625 463.94648438 -192.6953125 464.94921875 C-198.74488934 471.76715021 -202.28017155 478.25244364 -205 487 C-205.34417969 487.98097656 -205.68835938 488.96195312 -206.04296875 489.97265625 C-208.30366378 496.68544799 -209.8238115 503.4977993 -211.1875 510.4375 C-211.35451416 511.27087891 -211.52152832 512.10425781 -211.69360352 512.96289062 C-218.14031933 547.38961386 -213.10268903 581.70638706 -205.37915039 615.37646484 C-200.00338405 638.89137263 -195.48589991 662.54483914 -193.33251953 686.58642578 C-193.08483477 689.1291044 -192.80404572 691.65619083 -192.49169922 694.19091797 C-191.09515615 705.7953576 -190.68875229 717.24884763 -190.73925781 728.93310547 C-190.7499663 731.86577129 -190.73929398 734.79782141 -190.7265625 737.73046875 C-190.71321978 754.85724379 -192.04370339 771.77826915 -194.8125 788.6875 C-194.98426758 789.73728027 -195.15603516 790.78706055 -195.33300781 791.86865234 C-196.91633542 801.14343992 -199.13101483 810.04659393 -202 819 C-202.26232422 819.84643066 -202.52464844 820.69286133 -202.79492188 821.56494141 C-213.68560168 856.39373785 -231.83132263 888.51382869 -257 915 C-258.19476774 916.36868963 -259.38280272 917.74329976 -260.5625 919.125 C-268.93527516 928.73600247 -278.41115658 936.96439155 -288.3125 944.9375 C-288.90434082 945.41550049 -289.49618164 945.89350098 -290.10595703 946.38598633 C-291.35808603 947.38631208 -292.6264331 948.36656268 -293.9074707 949.32958984 C-296.07847181 950.99301477 -296.07847181 950.99301477 -298.09838867 953.14306641 C-307.4295457 961.70872138 -318.77054355 959.88497444 -330.6875 959.5 C-332.85344969 959.4598148 -335.01947122 959.42332295 -337.18554688 959.390625 C-342.458615 959.30304834 -347.72896835 959.169678 -353 959 C-349.77832055 955.72797132 -346.64089214 952.88050377 -342.875 950.25 C-332.07303601 942.50139117 -322.3133941 933.79264069 -312.71142578 924.62792969 C-311.24440316 923.23247935 -309.76232495 921.85288653 -308.27734375 920.4765625 C-300.53169489 913.09615562 -294.31252566 904.59630254 -288 896 C-287.48646973 895.30986816 -286.97293945 894.61973633 -286.44384766 893.90869141 C-264.40182826 864.20974664 -251.63660149 831.7074585 -243 796 C-242.75056641 794.97060303 -242.75056641 794.97060303 -242.49609375 793.92041016 C-237.51736383 772.81126811 -235.79706038 750.38371491 -235.8125 728.75 C-235.81277191 728.09236664 -235.81304382 727.43473328 -235.81332397 726.75717163 C-235.88010501 690.94810961 -240.13214914 655.60026532 -245.57495117 620.25537109 C-245.80227684 618.77024269 -245.80227684 618.77024269 -246.03419495 617.25511169 C-246.31843778 615.40198881 -246.60550267 613.54929539 -246.89610291 611.69715881 C-248.74182716 599.66187993 -249.24072356 587.78326712 -249.25 575.625 C-249.25067474 574.82697968 -249.25134949 574.02895935 -249.25204468 573.20675659 C-249.23510884 560.56486319 -248.55202329 548.41234573 -246 536 C-245.8443457 535.17145508 -245.68869141 534.34291016 -245.52832031 533.48925781 C-237.65152894 492.02997865 -212.62699143 455.77553757 -186 424 C-185.50145508 423.4023584 -185.00291016 422.8047168 -184.48925781 422.18896484 C-175.54200393 411.49295633 -166.18992617 401.12469182 -156.2890625 391.30078125 C-153.96706162 388.99295266 -151.77161682 386.6529045 -149.6875 384.125 C-147.10556019 381.12358108 -144.37832384 378.48407843 -141.40234375 375.875 C-136.01707223 371.07289093 -130.93631369 366.0145411 -125.875 360.875 C-120.73370949 355.6549761 -115.58332032 350.56057322 -110.0234375 345.78759766 C-99.15782831 336.18841927 -88.71773989 325.59654579 -80 314 C-79.05260229 312.76913164 -78.10464227 311.53869596 -77.15625 310.30859375 C-66.62449156 296.55436898 -57.37909708 282.42046789 -49.16845703 267.16503906 C-48.07107825 265.1317012 -46.95812954 263.10783124 -45.83984375 261.0859375 C-28.90023508 230.24819568 -17.2090389 195.36326142 -10.56494141 160.90625 C-9.97866289 157.89023469 -9.35544808 154.88321494 -8.73046875 151.875 C-6.04802137 138.60011732 -4.19758678 125.3315601 -2.75 111.875 C-2.66700653 111.1083905 -2.58401306 110.34178101 -2.49850464 109.55194092 C-0.67824274 92.51663146 0.15417232 75.62078192 0.09765625 58.49609375 C0.09578446 56.79403221 0.09436417 55.09197012 0.09336853 53.38990784 C0.08960311 48.97273189 0.07982611 44.55559035 0.06866455 40.13842773 C0.05649163 34.80500245 0.05201966 29.47156547 0.04621124 24.13813019 C0.03660934 16.09206307 0.01741155 8.04607102 0 0 Z " fill="#CCE3FB" transform="translate(980,0)"/>
<path d="M0 0 C0.33 0.99 0.66 1.98 1 3 C0.31035156 3.66644531 -0.37929688 4.33289063 -1.08984375 5.01953125 C-6.65808884 10.48084159 -11.82634865 16.02104234 -16.6953125 22.12890625 C-19.19590751 25.24405427 -21.77808123 28.27789829 -24.375 31.3125 C-41.12060847 51.00496136 -56.17920256 71.88722429 -69.25 94.1875 C-69.82854736 95.17290771 -70.40709473 96.15831543 -71.00317383 97.17358398 C-75.63964126 105.17004203 -80.158562 113.29583077 -83.59765625 121.890625 C-85.15103352 125.33488213 -87.03915874 127.83575939 -89.4375 130.75 C-99.72680993 143.67991227 -108.16726448 157.97318916 -115 173 C-115.45366943 173.98419922 -115.45366943 173.98419922 -115.91650391 174.98828125 C-124.16234986 193.10715342 -128.51360397 211.9055427 -130.73291016 231.63183594 C-131.12316486 235.09204671 -131.56316481 238.54539509 -132 242 C-132.33 242 -132.66 242 -133 242 C-133.63034152 202.65699171 -133.63034152 202.65699171 -130 185 C-129.76651855 183.75718262 -129.76651855 183.75718262 -129.52832031 182.48925781 C-121.65152894 141.02997865 -96.62699143 104.77553757 -70 73 C-69.50145508 72.4023584 -69.00291016 71.8047168 -68.48925781 71.18896484 C-59.54200393 60.49295633 -50.18992617 50.12469182 -40.2890625 40.30078125 C-37.96706162 37.99295266 -35.77161682 35.6529045 -33.6875 33.125 C-31.11422001 30.13452404 -28.39907216 27.50224426 -25.43359375 24.90234375 C-19.87470974 19.94528639 -14.61495303 14.72791183 -9.375 9.4375 C-8.46621094 8.52419922 -7.55742188 7.61089844 -6.62109375 6.66992188 C-4.41172045 4.44892029 -2.20473969 2.22559967 0 0 Z " fill="#A6CEF9" transform="translate(864,351)"/>
<path d="M0 0 C1.96086813 3.64606498 2.3761588 6.4540812 2.6328125 10.61328125 C2.67464661 11.27789871 2.71648071 11.94251617 2.75958252 12.62727356 C2.89390625 14.85517008 3.01147732 17.08345022 3.125 19.3125 C3.18654266 20.48338165 3.18654266 20.48338165 3.24932861 21.67791748 C5.08851635 57.64556085 4.59204867 93.25656414 0 129 C-0.08958984 129.69981995 -0.17917969 130.39963989 -0.27148438 131.1206665 C-4.62329027 164.56409334 -12.74659155 199.3452251 -27 230 C-27.82716415 231.84894554 -28.65136175 233.69922096 -29.47265625 235.55078125 C-34.0778037 245.8370286 -38.87071684 255.96813216 -44.25 265.875 C-44.72058838 266.74680908 -45.19117676 267.61861816 -45.67602539 268.5168457 C-49.06125373 274.64420921 -52.91147263 280.32352308 -57 286 C-57.93533153 287.33341813 -58.86907547 288.66795216 -59.80078125 290.00390625 C-60.63761768 291.19038862 -61.4748468 292.37659413 -62.3125 293.5625 C-62.74111328 294.17673828 -63.16972656 294.79097656 -63.61132812 295.42382812 C-66.77173332 299.88586666 -66.77173332 299.88586666 -69 301 C-67.73596742 297.52844641 -66.28288464 294.8174168 -64.0625 291.875 C-36.95305554 253.94432199 -19.32311924 206.32711169 -10.56494141 160.90625 C-9.97866289 157.89023469 -9.35544808 154.88321494 -8.73046875 151.875 C-6.04802137 138.60011732 -4.19758678 125.3315601 -2.75 111.875 C-2.66700653 111.1083905 -2.58401306 110.34178101 -2.49850464 109.55194092 C-0.67824274 92.51663146 0.15417232 75.62078192 0.09765625 58.49609375 C0.09578446 56.79403221 0.09436417 55.09197012 0.09336853 53.38990784 C0.08960311 48.97273189 0.07982611 44.55559035 0.06866455 40.13842773 C0.05831973 35.60596176 0.0538433 31.07349007 0.04882812 26.54101562 C0.03819662 17.69399486 0.02119486 8.84700175 0 0 Z " fill="#A2CCF9" transform="translate(980,0)"/>
</svg>
