<?xml version="1.0" encoding="utf-8"?>
<!-- Svg Vector Icons : http://www.onlinewebfonts.com/icon -->
<!DOCTYPE svg PUBLIC "-//W3C//DTD SVG 1.1//EN" "http://www.w3.org/Graphics/SVG/1.1/DTD/svg11.dtd">
<svg version="1.1" xmlns="http://www.w3.org/2000/svg" xmlns:xlink="http://www.w3.org/1999/xlink" x="0px" y="0px" viewBox="0 0 256 256" enable-background="new 0 0 256 256" xml:space="preserve">
<metadata> Svg Vector Icons : http://www.onlinewebfonts.com/icon </metadata>
<g><g><path fill="#000000" d="M77.4,59.4h101.1v16.9H77.4V59.4L77.4,59.4z"/><path fill="#000000" d="M77.4,93.1h101.1V110H77.4V93.1L77.4,93.1z"/><path fill="#000000" d="M77.4,126.8h67.4v16.9H77.4V126.8L77.4,126.8z"/><path fill="#000000" d="M144.9,126.8h33.7v16.9h-33.7V126.8L144.9,126.8z"/><path fill="#000000" d="M178.6,59.4h16.9v84.3h-16.9V59.4L178.6,59.4z"/><path fill="#000000" d="M144.9,59.4h16.9v67.4h-16.9V59.4L144.9,59.4z"/><path fill="#000000" d="M94.3,59.4h16.9v67.4H94.3V59.4z"/><path fill="#000000" d="M60.6,59.4h16.9v84.3H60.6V59.4L60.6,59.4z"/><path fill="#000000" d="M111.1,160.5h33.7v50.6h-33.7V160.5L111.1,160.5z"/><path fill="#000000" d="M156.8,211.1c4.8,0,6.4-1,3.6,2.4L133.1,245c-2.8,3.4-7.3,2.5-10.1-0.9L95.7,214c-2.8-3.4-1.2-2.9,3.6-2.9H156.8z"/><path fill="#000000" d="M60.6,228C32.7,228,10,205.3,10,177.4v-118C10,31.5,32.7,8.8,60.6,8.8h134.9c27.9,0,50.6,22.7,50.6,50.6v118c0,27.9-22.7,50.6-50.6,50.6v-33.7c9.3,0,16.9-7.6,16.9-16.9v-118c0-9.3-7.6-16.9-16.9-16.9H60.6c-9.3,0-16.9,7.6-16.9,16.9v118c0,9.3,7.6,16.9,16.9,16.9V228L60.6,228z"/><path fill="#000000" d="M178.6,194.3h16.9V228h-16.9V194.3L178.6,194.3z"/><path fill="#000000" d="M60.6,194.3h16.9V228H60.6V194.3L60.6,194.3z"/></g></g>
</svg>