<svg width="30" height="30" viewBox="0 0 30 30" fill="none" xmlns="http://www.w3.org/2000/svg">
<circle cx="15" cy="15" r="15" fill="white"/>
<path fill-rule="evenodd" clip-rule="evenodd" d="M7.50618 5.38696C7.23634 5.89238 6.5433 8.15873 6.28216 9.38986C5.91384 11.1261 5.8854 14.2386 6.2261 15.5119C6.49441 16.5149 7.09402 17.792 7.64744 18.5394C8.56142 19.774 10.3149 20.9276 12.1553 21.5054C13.1169 21.8072 13.1564 21.835 14.3927 23.0773C15.8467 24.5384 16.3526 24.8699 16.8097 24.6613C17.065 24.5447 17.1115 24.4461 17.1119 24.0206C17.1127 23.2086 17.4279 21.4919 17.8206 20.1624C18.4036 18.188 19.4217 16.2168 20.4657 15.041L20.7792 14.6878L20.5671 15.041C19.2142 17.2931 18.2672 19.6445 17.9879 21.4452L17.9076 21.9627L18.4063 21.8828C19.1723 21.7601 20.4023 21.1119 20.9935 20.5196C21.9058 19.6052 22.1324 18.9108 22.4555 16.0379C22.7228 13.66 23.0739 12.5693 23.8467 11.7151C24.1452 11.385 24.1468 11.385 22.9644 11.7579C20.8617 12.4212 19.1107 13.4521 17.8965 14.7415C16.2643 16.4749 15.8377 18.5638 16.6333 20.9276C16.8885 21.6856 16.8979 21.5687 16.4137 23.6355L16.3309 23.9887L14.6847 22.3404C12.4098 20.0629 10.9978 18.1283 9.86418 15.7356C9.32533 14.5982 8.61184 12.5278 8.48891 11.7445C8.42286 11.3237 8.44449 11.3488 8.69246 11.9807C9.59376 14.2774 10.9588 16.7553 12.3318 18.587C13.1538 19.6836 14.3536 20.9756 14.4441 20.8617C14.4668 20.8332 14.5939 20.5715 14.7266 20.2801C15.6795 18.1891 15.794 16.3085 15.0598 14.8054C14.7781 14.2287 13.4852 12.8679 11.5878 11.1514C9.18078 8.97391 8.18264 7.57113 7.7793 5.79902C7.65097 5.2352 7.61571 5.18198 7.50618 5.38696Z" fill="url(#paint0_linear_8629_19197)"/>
<defs>
<linearGradient id="paint0_linear_8629_19197" x1="5.46122" y1="5.27734" x2="18.7714" y2="25.371" gradientUnits="userSpaceOnUse">
<stop stop-color="#F9B935"/>
<stop offset="1" stop-color="#FFAC00"/>
</linearGradient>
</defs>
</svg>
