<svg width="160" height="68" viewBox="0 0 160 68" fill="none" xmlns="http://www.w3.org/2000/svg">
<g clip-path="url(#clip0_6282_12490)">
<path d="M88.56 17.4855C89.6282 12.4939 93.295 10.286 94.9949 9.80597C88.2674 7.06238 84.9807 10.3528 84.1753 12.6391C54.4773 -17.0372 21.9984 13.2355 24.3403 31.3129L20.6001 34.4469L23.0205 37.3341C32.4682 76.6524 74.1235 71.8199 85.0107 52.779V64.9942C86.3297 67.5957 89.4032 66.4996 89.7388 64.9942V43.4039H138.596L143.324 35.2352C156.972 33.8361 157.748 29.6929 156.513 26.791C149.493 18.3676 135.988 31.2352 135.018 39.1099H37.9407L34.1474 43.4039H84.9173C61.8295 80.6564 30.6754 51.7992 33.5957 39.1099H28.0126V36.5692H50.8872C52.1117 35.3593 51.3973 33.9324 50.8872 33.3702H48.7962V20.9943H50.7058C51.5369 19.9202 51.2872 18.9131 50.7058 18.3191H40.8338C39.9082 19.2338 40.448 20.2238 40.8338 20.6045H43.295V33.3702H28.0126V31.3129H33.5957C32.6118 29.9661 32.4338 27.6931 32.4682 26.725C41.5723 -1.22114 66.9705 1.64663 81.1541 17.4855H88.56Z" fill="#FFAE00"/>
<path d="M46.1493 18.1538C47.7519 18.1538 49.051 16.8698 49.051 15.2859C49.051 13.702 47.7519 12.418 46.1493 12.418C44.5467 12.418 43.2475 13.702 43.2475 15.2859C43.2475 16.8698 44.5467 18.1538 46.1493 18.1538Z" fill="#FFAE00"/>
<path d="M99.2888 46.4308V48.784H99.1044C98.8819 48.1408 98.5482 47.6516 98.1033 47.317C97.6582 46.9822 97.1718 46.8147 96.6437 46.8147C96.139 46.8147 95.7189 46.9559 95.3836 47.2382C95.048 47.517 94.8107 47.9076 94.6711 48.4099C94.5318 48.9118 94.462 49.4271 94.462 49.9556C94.462 50.5956 94.5385 51.1567 94.6913 51.6394C94.844 52.1217 95.0897 52.4762 95.4284 52.7028C95.7705 52.9291 96.1756 53.0424 96.6437 53.0424C96.8064 53.0424 96.9726 53.0259 97.142 52.993C97.3146 52.9569 97.4905 52.906 97.6698 52.8405V51.4523C97.6698 51.1896 97.6515 51.0206 97.615 50.9453C97.5785 50.8665 97.5023 50.7959 97.386 50.7335C97.273 50.6712 97.1353 50.6399 96.9726 50.6399H96.7981V50.4579H100.081V50.6399C99.8317 50.6563 99.6574 50.6908 99.5578 50.7434C99.4615 50.7924 99.3866 50.8763 99.3337 50.9944C99.3036 51.0567 99.2888 51.2093 99.2888 51.4523V52.8405C98.8572 53.031 98.407 53.1737 97.9388 53.2687C97.4738 53.3671 96.9909 53.4165 96.4894 53.4165C95.8483 53.4165 95.3154 53.331 94.8905 53.1604C94.4687 52.9867 94.095 52.7601 93.7696 52.4812C93.4475 52.1989 93.1951 51.8821 93.0126 51.5311C92.7801 51.0779 92.6639 50.5709 92.6639 50.0097C92.6639 49.0055 93.0209 48.157 93.7347 47.4645C94.4488 46.772 95.3471 46.4258 96.4295 46.4258C96.7651 46.4258 97.0671 46.452 97.3361 46.5046C97.4821 46.5308 97.7181 46.6065 98.0435 46.7312C98.3723 46.8524 98.5664 46.9132 98.6263 46.9132C98.7192 46.9132 98.8056 46.8805 98.8854 46.8147C98.9651 46.7458 99.0381 46.6179 99.1044 46.4308H99.2888ZM104.434 51.3586H102.048L101.764 52.0084C101.671 52.2252 101.625 52.404 101.625 52.5452C101.625 52.7322 101.701 52.8699 101.854 52.9585C101.944 53.0111 102.165 53.0506 102.516 53.0769V53.2589H100.27V53.0769C100.512 53.0408 100.712 52.9424 100.868 52.7813C101.024 52.6173 101.216 52.2809 101.446 51.7723L103.861 46.4457H103.956L106.392 51.9198C106.624 52.4385 106.815 52.7651 106.965 52.8996C107.078 53.0013 107.237 53.0604 107.443 53.0769V53.2589H104.175V53.0769H104.31C104.572 53.0769 104.756 53.0408 104.863 52.9684C104.936 52.9161 104.972 52.8405 104.972 52.742C104.972 52.6829 104.962 52.6221 104.942 52.5598C104.936 52.5303 104.886 52.4072 104.793 52.1907L104.434 51.3586ZM104.265 50.9944L103.259 48.6953L102.223 50.9944H104.265ZM110.272 50.2164V52.0872C110.272 52.4483 110.294 52.6765 110.337 52.7715C110.383 52.8635 110.463 52.9373 110.576 52.993C110.689 53.049 110.9 53.0769 111.209 53.0769V53.2589H107.752V53.0769C108.064 53.0769 108.275 53.049 108.384 52.993C108.497 52.9341 108.575 52.8585 108.619 52.7667C108.665 52.6746 108.688 52.4483 108.688 52.0872V47.755C108.688 47.3939 108.665 47.1676 108.619 47.0758C108.575 46.9806 108.497 46.905 108.384 46.8492C108.271 46.7935 108.06 46.7657 107.752 46.7657V46.5834H110.89C111.707 46.5834 112.304 46.6391 112.683 46.7508C113.061 46.8622 113.37 47.0692 113.609 47.3711C113.849 47.6696 113.968 48.0209 113.968 48.4247C113.968 48.9169 113.789 49.3239 113.43 49.6455C113.201 49.849 112.881 50.0015 112.469 50.1034L114.093 52.3629C114.305 52.655 114.456 52.8373 114.546 52.9095C114.682 53.0111 114.84 53.0671 115.019 53.0769V53.2589H112.892L110.715 50.2164H110.272ZM110.272 46.9429V49.867H110.556C111.018 49.867 111.363 49.8259 111.592 49.7439C111.821 49.6587 112.001 49.5078 112.13 49.291C112.263 49.071 112.329 48.7856 112.329 48.4345C112.329 47.9256 112.208 47.5499 111.966 47.3072C111.727 47.0641 111.34 46.9429 110.805 46.9429H110.272ZM119.796 50.9845L121.629 46.5834H124.379V46.7657H124.159C123.96 46.7657 123.801 46.7999 123.681 46.8689C123.598 46.9148 123.532 46.992 123.482 47.1002C123.446 47.179 123.427 47.3841 123.427 47.7158V52.1169C123.427 52.4581 123.446 52.6715 123.482 52.7569C123.519 52.8421 123.593 52.9177 123.706 52.9832C123.819 53.0456 123.97 53.0769 124.159 53.0769H124.379V53.2589H120.852V53.0769H121.071C121.27 53.0769 121.43 53.0424 121.549 52.9734C121.632 52.9275 121.699 52.8487 121.749 52.737C121.785 52.6585 121.803 52.4515 121.803 52.1169V47.1692L119.213 53.2589H119.094L116.464 47.2135V51.915C116.464 52.2432 116.472 52.4449 116.489 52.5205C116.532 52.6845 116.625 52.8192 116.768 52.924C116.914 53.0259 117.141 53.0769 117.45 53.0769V53.2589H115.139V53.0769H115.208C115.358 53.0801 115.497 53.057 115.627 53.0079C115.756 52.9554 115.854 52.8864 115.921 52.8012C115.987 52.7158 116.039 52.5961 116.075 52.4417C116.082 52.4056 116.085 52.2382 116.085 51.9397V47.7158C116.085 47.3778 116.067 47.1676 116.03 47.0856C115.994 47.0002 115.919 46.9264 115.806 46.8641C115.693 46.7983 115.542 46.7657 115.353 46.7657H115.139V46.5834H117.898L119.796 50.9845ZM127.347 46.9673V49.685H127.482C127.91 49.685 128.221 49.5521 128.413 49.2862C128.606 49.0204 128.729 48.628 128.782 48.1095H128.971V51.6049H128.782C128.742 51.2241 128.657 50.9124 128.528 50.6693C128.402 50.4266 128.254 50.2642 128.085 50.1822C127.915 50.0968 127.67 50.0541 127.347 50.0541V51.9347C127.347 52.3021 127.362 52.5271 127.392 52.6091C127.425 52.6911 127.485 52.7585 127.572 52.811C127.658 52.8635 127.797 52.8898 127.99 52.8898H128.394C129.024 52.8898 129.529 52.7452 129.908 52.4565C130.29 52.1676 130.563 51.728 130.73 51.1371H130.914L130.61 53.2589H124.772V53.0769H124.996C125.192 53.0769 125.35 53.0424 125.47 52.9734C125.556 52.9275 125.622 52.8487 125.669 52.737C125.705 52.6585 125.723 52.4515 125.723 52.1169V47.7256C125.723 47.4237 125.715 47.2382 125.699 47.1692C125.665 47.0543 125.604 46.9657 125.514 46.9034C125.388 46.8116 125.216 46.7657 124.996 46.7657H124.772V46.5834H130.426V48.5574H130.236C130.14 48.075 130.004 47.7288 129.828 47.5186C129.655 47.3088 129.41 47.1544 129.091 47.0559C128.905 46.997 128.556 46.9673 128.045 46.9673H127.347ZM133.912 46.5834L137.245 50.7237V47.8535C137.245 47.4531 137.187 47.1825 137.071 47.0413C136.911 46.8508 136.644 46.759 136.269 46.7657V46.5834H138.5V46.7657C138.214 46.8017 138.022 46.8492 137.922 46.9084C137.826 46.9641 137.75 47.0575 137.693 47.1888C137.64 47.317 137.613 47.5385 137.613 47.8535V53.4114H137.444L132.876 47.8535V52.097C132.876 52.4812 132.965 52.7404 133.14 52.875C133.32 53.0095 133.524 53.0769 133.753 53.0769H133.912V53.2589H131.516V53.0769C131.889 53.0734 132.148 52.9981 132.294 52.8503C132.44 52.7028 132.513 52.4515 132.513 52.097V47.3857L132.368 47.2085C132.225 47.0315 132.099 46.9148 131.99 46.8591C131.88 46.8033 131.722 46.772 131.516 46.7657V46.5834H133.912Z" fill="#FFAE00"/>
<path d="M145.538 48.3506V39.2344H149.627C150.45 39.2344 151.075 39.3172 151.503 39.483C151.93 39.6448 152.272 39.933 152.528 40.3474C152.784 40.7621 152.912 41.22 152.912 41.7218C152.912 42.3684 152.7 42.9136 152.276 43.3572C151.853 43.8008 151.198 44.0826 150.313 44.2028C150.636 44.3564 150.882 44.5076 151.049 44.6568C151.406 44.9802 151.744 45.3845 152.063 45.8695L153.667 48.3506H152.132L150.911 46.454C150.554 45.9067 150.261 45.488 150.03 45.1977C149.799 44.9078 149.592 44.7045 149.407 44.5886C149.227 44.4724 149.042 44.3914 148.853 44.3458C148.715 44.3169 148.489 44.3023 148.174 44.3023H146.758V48.3506H145.538ZM146.758 43.2577H149.382C149.94 43.2577 150.376 43.2017 150.691 43.0898C151.005 42.9738 151.245 42.7913 151.408 42.5427C151.572 42.2896 151.653 42.016 151.653 41.7218C151.653 41.2906 151.494 40.9362 151.175 40.6584C150.861 40.3806 150.362 40.2418 149.678 40.2418H146.758V43.2577Z" fill="#FFAE00"/>
<path d="M3.13207 35.3575V37.4034C3.13207 37.8024 3.15594 38.0545 3.20364 38.1598C3.25503 38.2614 3.34311 38.3429 3.46791 38.4047C3.59637 38.4662 3.82942 38.497 4.16711 38.497V38.6984H0.37384V38.497C0.718847 38.497 0.951913 38.4662 1.07303 38.4047C1.19782 38.3394 1.28407 38.2558 1.33179 38.1542C1.38317 38.0529 1.40887 37.8024 1.40887 37.4034V32.6151C1.40887 32.216 1.38317 31.9658 1.33179 31.8642C1.28407 31.7592 1.19782 31.6756 1.07303 31.614C0.948243 31.5525 0.715177 31.5214 0.37384 31.5214V31.3203H3.62756C4.6993 31.3203 5.46821 31.5087 5.93436 31.886C6.40048 32.2633 6.63355 32.735 6.63355 33.3007C6.63355 33.7796 6.48305 34.1895 6.18209 34.5304C5.88112 34.8714 5.46638 35.1035 4.93787 35.2269C4.58185 35.3139 3.97991 35.3575 3.13207 35.3575ZM3.13207 31.7446V34.9332C3.2532 34.9404 3.34496 34.9441 3.40735 34.9441C3.85513 34.9441 4.20013 34.8135 4.44238 34.5522C4.68461 34.2874 4.80574 33.8793 4.80574 33.328C4.80574 32.7801 4.68461 32.3795 4.44238 32.1256C4.20013 31.8717 3.8386 31.7446 3.35779 31.7446H3.13207ZM7.35476 37.0226C7.61167 37.0226 7.82824 37.1115 8.0044 37.2893C8.18424 37.467 8.27417 37.6809 8.27417 37.9313C8.27417 38.1815 8.18424 38.3957 8.0044 38.5732C7.82456 38.7475 7.60799 38.8345 7.35476 38.8345C7.1015 38.8345 6.88496 38.7475 6.70512 38.5732C6.52893 38.3957 6.44085 38.1815 6.44085 37.9313C6.44085 37.6809 6.52893 37.467 6.70512 37.2893C6.88496 37.1115 7.1015 37.0226 7.35476 37.0226ZM15.8772 31.3203V33.3171H15.679C15.5616 32.8565 15.4312 32.5262 15.2881 32.3267C15.145 32.1237 14.9486 31.9621 14.699 31.8425C14.5596 31.7772 14.3155 31.7446 13.9668 31.7446H13.4108V37.436C13.4108 37.8133 13.4309 38.0491 13.4713 38.1433C13.5153 38.2378 13.5979 38.3211 13.7191 38.3938C13.8439 38.4625 14.0127 38.497 14.2256 38.497H14.4733V38.6984H10.5644V38.497H10.8122C11.0287 38.497 11.2031 38.4591 11.3352 38.3829C11.4306 38.332 11.5059 38.245 11.5609 38.1216C11.6013 38.0346 11.6215 37.8061 11.6215 37.436V31.7446H11.082C10.5791 31.7446 10.2139 31.8499 9.98636 32.0603C9.66705 32.354 9.46518 32.773 9.38077 33.3171H9.17157V31.3203H15.8772ZM16.8572 37.0226C17.1141 37.0226 17.3306 37.1115 17.5068 37.2893C17.6867 37.467 17.7766 37.6809 17.7766 37.9313C17.7766 38.1815 17.6867 38.3957 17.5068 38.5732C17.327 38.7475 17.1104 38.8345 16.8572 38.8345C16.6039 38.8345 16.3874 38.7475 16.2075 38.5732C16.0314 38.3957 15.9433 38.1815 15.9433 37.9313C15.9433 37.6809 16.0314 37.467 16.2075 37.2893C16.3874 37.1115 16.6039 37.0226 16.8572 37.0226Z" fill="#FFAE00"/>
<path d="M66.7917 18.4727L66.9431 24.6212H66.3788C66.1128 23.0795 65.4567 21.8416 64.4105 20.9076C63.3737 19.9644 62.2497 19.4929 61.0384 19.4929C60.1026 19.4929 59.3592 19.7422 58.8086 20.241C58.2674 20.7307 57.9968 21.2975 57.9968 21.9414C57.9968 22.3495 58.0929 22.7122 58.2857 23.0296C58.5517 23.4559 58.9785 23.8776 59.5657 24.2947C59.9971 24.594 60.9925 25.1245 62.5525 25.8863C64.7364 26.9472 66.2089 27.9493 66.9705 28.8925C67.723 29.8358 68.0991 30.9148 68.0991 32.13C68.0991 33.6718 67.4889 35.0002 66.2687 36.1157C65.0575 37.2221 63.516 37.7752 61.644 37.7752C61.0569 37.7752 60.5018 37.7163 59.9785 37.5983C59.4556 37.4805 58.7995 37.2584 58.0105 36.9318C57.5699 36.7506 57.2075 36.6598 56.9232 36.6598C56.6846 36.6598 56.4322 36.7506 56.1662 36.9318C55.9001 37.1133 55.6843 37.3897 55.5192 37.7617H55.0099V30.797H55.5192C55.923 32.7556 56.6983 34.252 57.8454 35.286C59.0014 36.3107 60.2448 36.823 61.5753 36.823C62.603 36.823 63.4196 36.5463 64.0253 35.9933C64.64 35.4401 64.9474 34.7962 64.9474 34.0615C64.9474 33.6264 64.8279 33.2045 64.5895 32.7965C64.36 32.3884 64.0067 32.0029 63.5297 31.6402C63.0526 31.2685 62.2083 30.7877 60.9971 30.1985C59.2996 29.373 58.0792 28.6702 57.3361 28.0899C56.5928 27.5094 56.0193 26.8612 55.6156 26.1447C55.221 25.4283 55.0236 24.6393 55.0236 23.7778C55.0236 22.3087 55.5697 21.0572 56.6615 20.0234C57.7536 18.9896 59.13 18.4727 60.7906 18.4727C61.3963 18.4727 61.9836 18.5452 62.5525 18.6903C62.9836 18.7991 63.5066 19.0032 64.1216 19.3024C64.7455 19.5926 65.1812 19.7377 65.429 19.7377C65.6677 19.7377 65.8556 19.6652 65.9933 19.5201C66.131 19.375 66.2593 19.0258 66.3788 18.4727H66.7917ZM87.0242 18.8943V23.8866H86.5286C86.2352 22.7349 85.9093 21.9097 85.5514 21.4109C85.1936 20.903 84.7028 20.4995 84.0787 20.2002C83.7302 20.037 83.12 19.9554 82.2483 19.9554H80.858V34.1841C80.858 35.1271 80.9085 35.7166 81.0094 35.9525C81.1195 36.1881 81.3259 36.3969 81.6287 36.5781C81.9407 36.7506 82.363 36.8365 82.895 36.8365H83.5144V37.3399H73.7423V36.8365H74.3616C74.9031 36.8365 75.3388 36.7413 75.6693 36.5511C75.9077 36.424 76.0959 36.2064 76.2336 35.8981C76.3345 35.6803 76.385 35.109 76.385 34.1841V19.9554H75.036C73.7791 19.9554 72.8661 20.2184 72.2972 20.7443C71.4988 21.4789 70.9941 22.5263 70.7831 23.8866H70.2601V18.8943H87.0242ZM95.7227 19.9554V27.4643H96.0945C97.2781 27.4643 98.1361 27.0968 98.6682 26.3623C99.2003 25.6278 99.5399 24.5441 99.6867 23.1113H100.21V32.7694H99.6867C99.5767 31.7174 99.3426 30.8559 98.9847 30.1847C98.636 29.5137 98.2277 29.0647 97.7597 28.8381C97.2918 28.6023 96.6129 28.4845 95.7227 28.4845V33.6808C95.7227 34.6965 95.764 35.3176 95.8467 35.5444C95.9385 35.771 96.1036 35.957 96.3423 36.1021C96.5807 36.2473 96.9662 36.3197 97.4983 36.3197H98.6132C100.357 36.3197 101.751 35.9206 102.797 35.1226C103.853 34.3245 104.609 33.1093 105.068 31.477H105.577L104.738 37.3399H88.607V36.8365H89.2263C89.7678 36.8365 90.2035 36.7413 90.534 36.5511C90.7724 36.424 90.956 36.2064 91.0846 35.8981C91.1855 35.6803 91.236 35.109 91.236 34.1841V22.0502C91.236 21.2159 91.2129 20.7035 91.167 20.5131C91.0752 20.1957 90.9055 19.9508 90.6577 19.7785C90.309 19.5246 89.832 19.3976 89.2263 19.3976H88.607V18.8943H104.229V24.3491H103.706C103.439 23.016 103.063 22.0593 102.577 21.4789C102.1 20.8985 101.421 20.4723 100.54 20.2002C100.026 20.037 99.0628 19.9554 97.6497 19.9554H95.7227ZM118.749 26.5256L123.897 34.0753C124.75 35.3266 125.356 36.0883 125.714 36.3606C126.081 36.6235 126.512 36.7822 127.008 36.8365V37.3399H117.91V36.8365C118.635 36.7822 119.103 36.6734 119.314 36.5102C119.525 36.347 119.63 36.1475 119.63 35.9116C119.63 35.7485 119.598 35.6033 119.534 35.4762C119.405 35.2043 119.084 34.6965 118.57 33.9528L115.845 29.9671L112.996 33.4086C112.143 34.4516 111.716 35.1589 111.716 35.5306C111.716 35.7938 111.826 36.0385 112.046 36.2653C112.267 36.4919 112.592 36.6553 113.024 36.7551C113.216 36.8095 113.611 36.8365 114.207 36.8365V37.3399H107.037V36.8365C107.853 36.7187 108.496 36.5012 108.964 36.1836C109.578 35.7665 110.436 34.896 111.537 33.572L115.24 29.1101L110.491 22.2135C109.711 21.0799 109.266 20.4496 109.156 20.3226C108.908 20.0234 108.665 19.8103 108.427 19.6833C108.188 19.5563 107.858 19.4611 107.436 19.3976V18.8943H116.699V19.3976H116.231C115.699 19.3976 115.327 19.4838 115.116 19.6561C114.905 19.8193 114.799 20.0279 114.799 20.2818C114.799 20.4814 114.831 20.6537 114.896 20.7988L115.845 22.2135L118.158 25.6958L120.126 23.3153C121.135 22.091 121.64 21.234 121.64 20.7443C121.64 20.4995 121.566 20.2728 121.42 20.0642C121.282 19.8556 121.08 19.6924 120.814 19.5745C120.548 19.4566 120.135 19.3976 119.575 19.3976V18.8943H126.443V19.3976C125.902 19.4067 125.466 19.4747 125.136 19.6017C124.805 19.7196 124.452 19.9463 124.076 20.2818C123.837 20.4995 123.241 21.1751 122.287 22.3087L118.749 26.5256Z" fill="#FFAE00"/>
<path d="M105.787 63.8492V64.0315H102.255V63.8492H102.479C102.675 63.8492 102.833 63.8147 102.952 63.746C103.039 63.6998 103.105 63.621 103.152 63.5096C103.188 63.4308 103.206 63.2241 103.206 62.8892V58.4979C103.206 58.1567 103.188 57.9434 103.152 57.8579C103.115 57.7728 103.041 57.6987 102.927 57.6364C102.818 57.5709 102.668 57.538 102.479 57.538H102.255V57.356H105.787V57.538H105.563C105.367 57.538 105.209 57.5725 105.089 57.6414C105.003 57.6873 104.935 57.7661 104.885 57.8776C104.849 57.9564 104.83 58.1633 104.83 58.4979V62.8892C104.83 63.2304 104.849 63.444 104.885 63.5292C104.925 63.6146 105 63.69 105.109 63.7558C105.222 63.8181 105.373 63.8492 105.563 63.8492H105.787ZM108.566 57.356L111.898 61.496V58.626C111.898 58.2257 111.841 57.9548 111.724 57.8136C111.565 57.6234 111.297 57.5313 110.922 57.538V57.356H113.154V57.538C112.868 57.574 112.676 57.6215 112.576 57.6807C112.48 57.7364 112.403 57.8301 112.347 57.9614C112.294 58.0893 112.267 58.3108 112.267 58.626V64.184H112.098L107.53 58.626V62.8696C107.53 63.2535 107.618 63.5127 107.794 63.6473C107.973 63.782 108.178 63.8492 108.407 63.8492H108.566V64.0315H106.17V63.8492C106.542 63.846 106.801 63.7704 106.947 63.6229C107.093 63.4751 107.166 63.2241 107.166 62.8696V58.1583L107.022 57.9811C106.879 57.8038 106.753 57.6873 106.643 57.6316C106.534 57.5756 106.376 57.5446 106.17 57.538V57.356H108.566ZM113.532 64.0315V63.8492H113.756C113.952 63.8492 114.102 63.8197 114.205 63.7606C114.311 63.6982 114.389 63.6146 114.439 63.5096C114.469 63.4406 114.484 63.2339 114.484 62.8892V58.4979C114.484 58.1567 114.465 57.9434 114.429 57.8579C114.392 57.7728 114.318 57.6987 114.205 57.6364C114.095 57.5709 113.946 57.538 113.756 57.538H113.532V57.356H116.556C117.363 57.356 118.012 57.4642 118.504 57.6807C119.105 57.9466 119.559 58.3485 119.868 58.8869C120.181 59.4252 120.337 60.0338 120.337 60.7133C120.337 61.1827 120.26 61.616 120.107 62.0129C119.955 62.4069 119.757 62.7332 119.515 62.9927C119.272 63.2485 118.992 63.4554 118.673 63.613C118.358 63.7672 117.97 63.8868 117.512 63.9723C117.31 64.0116 116.991 64.0315 116.556 64.0315H113.532ZM116.108 57.7348V62.9434C116.108 63.219 116.121 63.388 116.147 63.4504C116.174 63.5127 116.219 63.5605 116.282 63.5931C116.372 63.6425 116.501 63.6672 116.671 63.6672C117.225 63.6672 117.649 63.4801 117.941 63.1057C118.339 62.6003 118.538 61.816 118.538 60.7526C118.538 59.8961 118.402 59.2119 118.13 58.6998C117.914 58.2994 117.637 58.027 117.298 57.8826C117.059 57.7807 116.662 57.7316 116.108 57.7348ZM124.71 57.2623C125.786 57.223 126.659 57.5332 127.33 58.1928C128.004 58.8524 128.341 59.6778 128.341 60.669C128.341 61.5157 128.09 62.2607 127.589 62.9041C126.925 63.7574 125.987 64.184 124.775 64.184C123.559 64.184 122.62 63.777 121.955 62.963C121.431 62.3199 121.169 61.5568 121.169 60.6738C121.169 59.6828 121.509 58.8574 122.19 58.1976C122.874 57.5348 123.714 57.223 124.71 57.2623ZM124.77 57.5775C124.152 57.5775 123.682 57.8892 123.36 58.5128C123.098 59.0248 122.967 59.7598 122.967 60.7181C122.967 61.8571 123.169 62.699 123.574 63.2437C123.857 63.6244 124.252 63.8147 124.76 63.8147C125.102 63.8147 125.387 63.7327 125.617 63.5687C125.909 63.3586 126.136 63.0238 126.299 62.5642C126.462 62.1015 126.543 61.4992 126.543 60.7576C126.543 59.8747 126.46 59.2151 126.294 58.7786C126.128 58.3387 125.915 58.0285 125.656 57.8481C125.401 57.6677 125.105 57.5775 124.77 57.5775ZM131.25 57.356L134.583 61.496V58.626C134.583 58.2257 134.525 57.9548 134.408 57.8136C134.249 57.6234 133.981 57.5313 133.606 57.538V57.356H135.838V57.538C135.552 57.574 135.36 57.6215 135.26 57.6807C135.164 57.7364 135.087 57.8301 135.031 57.9614C134.978 58.0893 134.951 58.3108 134.951 58.626V64.184H134.782L130.214 58.626V62.8696C130.214 63.2535 130.302 63.5127 130.478 63.6473C130.657 63.782 130.862 63.8492 131.091 63.8492H131.25V64.0315H128.854V63.8492C129.226 63.846 129.485 63.7704 129.631 63.6229C129.777 63.4751 129.85 63.2241 129.85 62.8696V58.1583L129.706 57.9811C129.563 57.8038 129.437 57.6873 129.327 57.6316C129.218 57.5756 129.06 57.5446 128.854 57.538V57.356H131.25ZM138.861 57.7399V60.4573H138.996C139.424 60.4573 139.735 60.3244 139.927 60.0585C140.12 59.7927 140.243 59.4005 140.296 58.8818H140.485V62.3772H140.296C140.256 61.9964 140.172 61.6847 140.042 61.4419C139.916 61.1991 139.768 61.0365 139.599 60.9545C139.429 60.8691 139.184 60.8266 138.861 60.8266V62.707C138.861 63.0747 138.876 63.2994 138.906 63.3814C138.939 63.4637 138.999 63.5308 139.086 63.5833C139.172 63.6359 139.311 63.6621 139.504 63.6621H139.907C140.539 63.6621 141.043 63.5178 141.422 63.2289C141.803 62.9402 142.078 62.5003 142.243 61.9097H142.428L142.124 64.0315H136.286V63.8492H136.51C136.706 63.8492 136.864 63.8147 136.984 63.746C137.07 63.6998 137.136 63.621 137.183 63.5096C137.219 63.4308 137.238 63.2241 137.238 62.8892V58.4979C137.238 58.196 137.229 58.0105 137.213 57.9418C137.179 57.8269 137.118 57.7383 137.028 57.6759C136.902 57.5839 136.729 57.538 136.51 57.538H136.286V57.356H141.94V59.3299H141.751C141.654 58.8476 141.518 58.5013 141.342 58.2912C141.169 58.0811 140.923 57.9269 140.605 57.8285C140.419 57.7693 140.07 57.7399 139.559 57.7399H138.861ZM147.678 57.2031L147.733 59.4284H147.529C147.432 58.8704 147.195 58.4225 146.816 58.0845C146.441 57.7431 146.034 57.5725 145.596 57.5725C145.257 57.5725 144.988 57.6627 144.789 57.8431C144.593 58.0203 144.495 58.2257 144.495 58.4586C144.495 58.6061 144.53 58.7375 144.6 58.8524C144.696 59.0068 144.85 59.1593 145.063 59.3103C145.219 59.4186 145.579 59.6107 146.144 59.8863C146.934 60.2702 147.467 60.6329 147.743 60.9741C148.015 61.3156 148.151 61.7062 148.151 62.1458C148.151 62.7038 147.93 63.1845 147.489 63.5884C147.05 63.9887 146.493 64.1888 145.815 64.1888C145.602 64.1888 145.402 64.1676 145.212 64.1248C145.023 64.0821 144.785 64.0017 144.5 63.8837C144.341 63.8181 144.209 63.7852 144.107 63.7852C144.02 63.7852 143.929 63.8181 143.832 63.8837C143.736 63.9492 143.658 64.0495 143.598 64.184H143.414V61.6635H143.598C143.745 62.3724 144.025 62.9139 144.44 63.288C144.859 63.6589 145.309 63.8444 145.79 63.8444C146.162 63.8444 146.458 63.7441 146.677 63.5441C146.899 63.3437 147.01 63.1108 147.01 62.8449C147.01 62.6873 146.967 62.5348 146.881 62.387C146.798 62.2395 146.67 62.0999 146.497 61.9686C146.325 61.8341 146.019 61.6603 145.581 61.4467C144.967 61.1482 144.525 60.8938 144.256 60.6839C143.987 60.4737 143.779 60.2389 143.633 59.9797C143.49 59.7205 143.419 59.435 143.419 59.1233C143.419 58.5916 143.617 58.1387 144.012 57.7645C144.407 57.3902 144.905 57.2031 145.506 57.2031C145.725 57.2031 145.938 57.2294 146.144 57.2819C146.3 57.3215 146.489 57.3952 146.712 57.5035C146.937 57.6085 147.095 57.6611 147.185 57.6611C147.271 57.6611 147.339 57.6348 147.389 57.5823C147.439 57.5297 147.485 57.4034 147.529 57.2031H147.678ZM152.3 63.8492V64.0315H148.769V63.8492H148.993C149.189 63.8492 149.347 63.8147 149.466 63.746C149.552 63.6998 149.619 63.621 149.665 63.5096C149.702 63.4308 149.72 63.2241 149.72 62.8892V58.4979C149.72 58.1567 149.702 57.9434 149.665 57.8579C149.629 57.7728 149.554 57.6987 149.441 57.6364C149.332 57.5709 149.182 57.538 148.993 57.538H148.769V57.356H152.3V57.538H152.076C151.881 57.538 151.723 57.5725 151.603 57.6414C151.517 57.6873 151.449 57.7661 151.399 57.8776C151.362 57.9564 151.344 58.1633 151.344 58.4979V62.8892C151.344 63.2304 151.362 63.444 151.399 63.5292C151.439 63.6146 151.514 63.69 151.623 63.7558C151.736 63.8181 151.887 63.8492 152.076 63.8492H152.3ZM156.784 62.1312H154.398L154.114 62.781C154.021 62.9975 153.974 63.1763 153.974 63.3175C153.974 63.5045 154.05 63.6425 154.203 63.7311C154.293 63.7836 154.514 63.8229 154.866 63.8492V64.0315H152.619V63.8492C152.862 63.8131 153.061 63.7147 153.217 63.5539C153.373 63.3896 153.566 63.0532 153.795 62.5446L156.211 57.218H156.305L158.741 62.6924C158.973 63.2108 159.165 63.5374 159.314 63.6719C159.427 63.7738 159.586 63.8327 159.792 63.8492V64.0315H156.525V63.8492H156.659C156.921 63.8492 157.105 63.8131 157.212 63.7409C157.285 63.6884 157.321 63.613 157.321 63.5143C157.321 63.4554 157.311 63.3947 157.292 63.3323C157.285 63.3029 157.235 63.1798 157.142 62.963L156.784 62.1312ZM156.614 61.7669L155.608 59.4676L154.572 61.7669H156.614Z" fill="#FFAE00"/>
<mask id="mask0_6282_12490" style="mask-type:alpha" maskUnits="userSpaceOnUse" x="140" y="35" width="18" height="18">
<path fill-rule="evenodd" clip-rule="evenodd" d="M149.18 52.3712C153.873 52.3712 157.678 48.6111 157.678 43.9727C157.678 39.3344 153.873 35.5742 149.18 35.5742C144.487 35.5742 140.682 39.3344 140.682 43.9727C140.682 48.6111 144.487 52.3712 149.18 52.3712ZM149.18 50.4718C152.812 50.4718 155.756 47.562 155.756 43.9727C155.756 40.3834 152.812 37.4737 149.18 37.4737C145.549 37.4737 142.605 40.3834 142.605 43.9727C142.605 47.562 145.549 50.4718 149.18 50.4718Z" fill="white"/>
</mask>
<g mask="url(#mask0_6282_12490)">
<path fill-rule="evenodd" clip-rule="evenodd" d="M149.18 52.3712C153.873 52.3712 157.678 48.6111 157.678 43.9727C157.678 39.3344 153.873 35.5742 149.18 35.5742C144.487 35.5742 140.682 39.3344 140.682 43.9727C140.682 48.6111 144.487 52.3712 149.18 52.3712ZM149.18 50.4718C152.812 50.4718 155.756 47.562 155.756 43.9727C155.756 40.3834 152.812 37.4737 149.18 37.4737C145.549 37.4737 142.605 40.3834 142.605 43.9727C142.605 47.562 145.549 50.4718 149.18 50.4718Z" fill="#F8B92C"/>
<path d="M157.409 43.9724C157.409 48.4643 153.725 52.1056 149.18 52.1056V52.6362C154.022 52.6362 157.946 48.7572 157.946 43.9724H157.409ZM149.18 35.8392C153.725 35.8392 157.409 39.4805 157.409 43.9724H157.946C157.946 39.1876 154.022 35.3086 149.18 35.3086V35.8392ZM140.951 43.9724C140.951 39.4805 144.635 35.8392 149.18 35.8392V35.3086C144.339 35.3086 140.414 39.1876 140.414 43.9724H140.951ZM149.18 52.1056C144.635 52.1056 140.951 48.4643 140.951 43.9724H140.414C140.414 48.7572 144.339 52.6362 149.18 52.6362V52.1056ZM155.488 43.9724C155.488 47.4152 152.664 50.2062 149.18 50.2062V50.7368C152.961 50.7368 156.025 47.7084 156.025 43.9724H155.488ZM149.18 37.7387C152.664 37.7387 155.488 40.5296 155.488 43.9724H156.025C156.025 40.2367 152.961 37.208 149.18 37.208V37.7387ZM142.873 43.9724C142.873 40.5296 145.697 37.7387 149.18 37.7387V37.208C145.401 37.208 142.336 40.2367 142.336 43.9724H142.873ZM149.18 50.2062C145.697 50.2062 142.873 47.4152 142.873 43.9724H142.336C142.336 47.7084 145.401 50.7368 149.18 50.7368V50.2062Z" fill="#FFAE00"/>
</g>
</g>
<defs>
<clipPath id="clip0_6282_12490">
<rect width="160" height="67.1264" fill="white" transform="translate(0 0.0859375)"/>
</clipPath>
</defs>
</svg>
