<svg xmlns="http://www.w3.org/2000/svg" viewBox="0 0 244.74 40.39"><defs><style>.a{fill:#0f5676;}</style></defs><title>Montbell logo - Brandlogos.net</title><path class="a" d="M437.9,527.06a3.22,3.22,0,0,1-1.46-2l-4.77-14.52a7.74,7.74,0,0,0-7.22-5.82c-3.54-.17-7,2.62-7.39,3.63-5.36-7.34-13.84-1.64-15.2-.08v-1.18c0-2.49-1.89-2.41-3.24-1.9l-7.73,4.05a2.51,2.51,0,0,0-1.26,1.94c0,1,.72,1.6,1.94,1.69a2,2,0,0,1,1.86,1.65v10.55a2.5,2.5,0,0,1-1.29,2c-.48.21-2.09.78-2.09,2a1.62,1.62,0,0,0,1.73,1.71h11.74a1.62,1.62,0,0,0,1.73-1.71c0-1.26-1.61-1.84-2.09-2a2.51,2.51,0,0,1-1.29-2v-9.41c0-1.23,1-4.94,4.56-4.77,2.7.12,3,2.87,3,3.88v10.3a2.5,2.5,0,0,1-1.29,2c-.48.21-2.09.78-2.09,2a1.62,1.62,0,0,0,1.73,1.71h11.74a1.62,1.62,0,0,0,1.73-1.71c0-1.26-1.61-1.84-2.09-2a2.51,2.51,0,0,1-1.29-2V514.8c0-1.56.8-3.8,2.87-3.8s3,1.86,3.46,3.17l3.34,11a2,2,0,0,1-1.62,1.92,2.16,2.16,0,0,0-1.71,2,1.62,1.62,0,0,0,1.73,1.71h12.37a1.62,1.62,0,0,0,1.73-1.71c0-1.26-1.61-1.84-2.09-2" transform="translate(-389.63 -491.81)"/><path class="a" d="M503.83,527.06a3.2,3.2,0,0,1-1.46-2l-4.77-14.52a7.74,7.74,0,0,0-7.21-5.82,7.42,7.42,0,0,0-6.55,3.55v-1.18c0-2.49-1.9-2.41-3.25-1.9l-7.72,4.05a2.51,2.51,0,0,0-1.27,1.94c0,1,.71,1.6,1.94,1.69a2,2,0,0,1,1.86,1.65v10.55a2.51,2.51,0,0,1-1.29,2c-.48.21-2.09.78-2.09,2a1.62,1.62,0,0,0,1.73,1.71h11.74a1.62,1.62,0,0,0,1.73-1.71c0-1.26-1.61-1.84-2.09-2a2.5,2.5,0,0,1-1.3-2V514.7c0-1.56.75-3.7,2.82-3.7s3,1.86,3.46,3.17l3.31,11a2,2,0,0,1-1.62,1.92,2.16,2.16,0,0,0-1.71,2,1.62,1.62,0,0,0,1.73,1.71h12.37a1.62,1.62,0,0,0,1.73-1.71c0-1.26-1.61-1.84-2.09-2" transform="translate(-389.63 -491.81)"/><path class="a" d="M466.15,509.11a19,19,0,0,0-6.38-3.73,12.5,12.5,0,0,0-3.68-.72,19.34,19.34,0,0,0-5.31.26,13,13,0,0,0-9.26,6.49c-3.15,6.06-2,13.75,3.86,17.39,7.9,5,21.21,3.69,24.66-5.63a12.94,12.94,0,0,0-3.89-14.05m-6,17.53c-2.8,1.62-7.36-1.05-10.2-6s-2.86-10.2-.07-11.82,7.37,1.06,10.2,6,2.87,10.2.07,11.81" transform="translate(-389.63 -491.81)"/><path class="a" d="M522.34,524.89a4.25,4.25,0,0,1-2.87,1.27c-1.69.08-2.87-1-2.87-3v-13.4l6.81,0c.95,0,1.18-.24,1.31-.84l.69-3.17c.17-.8-.32-.89-.72-.89h-8.1v-7.39c0-.8.23-1.88-1.14-2.3a2.25,2.25,0,0,0-2.55,1.14A76.81,76.81,0,0,1,505,505.6c-.42.42-1.94,1.58-1.92,2.83s1.18,1.39,1.64,1.43h2.2c.67,0,1.35.21,1.35,1.73v9.33c0,1.48-.26,3.8-.26,4.81s1,5.74,8.32,5.74c5.87,0,8.69-3.2,9.16-3.88a2.15,2.15,0,0,0,0-2.83c-.76-.84-2.36-.42-3.17.13" transform="translate(-389.63 -491.81)"/><path class="a" d="M536.33,511.93H528.7a1,1,0,0,0-1,1v7.62a1,1,0,0,0,1,1h7.62a1,1,0,0,0,1-1v-7.62a1,1,0,0,0-1-1" transform="translate(-389.63 -491.81)"/><path class="a" d="M569.69,513.86a13.15,13.15,0,0,0-18.29-6.74l.06-11.87v-1.18c0-2.49-1.89-2.4-3.24-1.9l-7.73,4.05a2.49,2.49,0,0,0-1.26,1.94c0,1,.72,1.6,1.94,1.69a2,2,0,0,1,1.86,1.65v29a1.6,1.6,0,0,0,1.81,1.64c1.52,0,4.45-2.09,4.92-2.53.82-.78,1.09-.51,1.5-.23,6.38,4.33,14.16,3.54,17.86-2.48,2.55-4.15,2.31-8.91.58-13m-8.35,9.66c-1.43,2.18-4.14,4-6.6,2.63-3-1.65-3.54-5.45-3.51-8.66a9.25,9.25,0,0,1,1.49-5.69,5.38,5.38,0,0,1,7-1.42,6.4,6.4,0,0,1,2.94,3.76,10.26,10.26,0,0,1-1.34,9.36" transform="translate(-389.63 -491.81)"/><path class="a" d="M602,523.2c-.61-.75-1.82-.51-2.58.09s-3.8,3.63-7.85,3.63a7.94,7.94,0,0,1-7.09-4c-.32-.57.17-.94.65-1.16,5-2.28,8.68-4,13.76-6.4,1.39-.67,1.44-1.54,1.08-2.34a14.94,14.94,0,0,0-5.46-6c-3.66-2.36-8.08-2.15-12.08-.94-7.11,2.14-10.64,8.65-9.28,15.63.93,4.81,4.48,7.95,9,9.53a19.07,19.07,0,0,0,12,0,18.54,18.54,0,0,0,7.94-5.61,2,2,0,0,0,0-2.41m-20.35-10.55a3.73,3.73,0,0,1,5.87-2.57,7.66,7.66,0,0,1,3.67,4.9l-8.53,4a13.33,13.33,0,0,1-1-6.29" transform="translate(-389.63 -491.81)"/><path class="a" d="M615.4,527.06a2.5,2.5,0,0,1-1.29-2V494c0-2.49-1.9-2.41-3.25-1.9l-7.73,4.05a2.51,2.51,0,0,0-1.27,1.94c0,1,.72,1.6,1.94,1.69a2,2,0,0,1,1.86,1.65v23.64a2.5,2.5,0,0,1-1.29,2c-.48.21-2.09.78-2.09,2a1.62,1.62,0,0,0,1.73,1.71h11.74a1.62,1.62,0,0,0,1.73-1.71c0-1.26-1.61-1.84-2.09-2" transform="translate(-389.63 -491.81)"/><path class="a" d="M632.28,527.06a2.49,2.49,0,0,1-1.29-2V494c0-2.49-1.9-2.41-3.24-1.9L620,496.15a2.51,2.51,0,0,0-1.27,1.94c0,1,.71,1.6,1.94,1.69a2,2,0,0,1,1.86,1.65v23.64a2.5,2.5,0,0,1-1.29,2c-.48.21-2.09.78-2.09,2a1.62,1.62,0,0,0,1.73,1.71h11.74a1.62,1.62,0,0,0,1.73-1.71c0-1.26-1.61-1.84-2.09-2" transform="translate(-389.63 -491.81)"/></svg>