<?xml version="1.0" encoding="UTF-8"?>
<svg version="1.1" xmlns="http://www.w3.org/2000/svg" width="512" height="512">
<path d="M0 0 C1.04258159 -0.01420511 1.04258159 -0.01420511 2.10622543 -0.02869719 C4.4299447 -0.05769091 6.75352624 -0.07248497 9.07737732 -0.08708191 C10.74695561 -0.10453366 12.41652661 -0.12269441 14.08609009 -0.14151001 C19.57325853 -0.19907046 25.06047153 -0.23472998 30.5478363 -0.26750183 C31.95441376 -0.27642098 31.95441376 -0.27642098 33.38940692 -0.28552032 C42.26012371 -0.34152063 51.13084736 -0.39013281 60.00169468 -0.41966724 C71.28413103 -0.45760333 82.56491314 -0.53223073 93.84670597 -0.65950567 C101.81065368 -0.74622487 109.77416429 -0.78933287 117.73856968 -0.80178469 C122.4764009 -0.81029683 127.21241461 -0.83637291 131.9497242 -0.90963173 C155.6043672 -1.25809627 173.53365821 0.71861867 194.98143005 11.31452942 C197.65265082 12.51101634 200.34105907 13.6592527 203.0322113 14.81062317 C205.1242723 15.78076173 207.21174948 16.76086237 209.29393005 17.75202942 C210.43942322 18.29150208 211.58491638 18.83097473 212.76512146 19.38679504 C254.87761497 39.38425006 294.22831271 64.37712803 329.98143005 94.31452942 C330.58825623 94.82225891 331.1950824 95.3299884 331.82029724 95.85310364 C333.60836996 97.35506542 335.39027461 98.86393102 337.16893005 100.37702942 C337.66626648 100.79871399 338.16360291 101.22039856 338.67601013 101.65486145 C349.56254576 111.00991019 359.83998764 121.00846486 369.96775818 131.17048645 C371.87221511 133.08035936 373.78203825 134.98475091 375.69236755 136.88874817 C381.66649807 142.8592908 387.55924049 148.83002554 392.98143005 155.31452942 C393.88169858 156.35946685 394.78271034 157.40376453 395.68455505 158.44734192 C401.82719386 165.66400039 407.79585875 172.99105954 413.58103943 180.49763489 C414.50925808 181.70192414 415.44022042 182.904104 416.37400818 184.1040802 C443.1638487 218.59739712 465.74916872 257.2004939 482.98143005 297.31452942 C483.30766074 297.92678123 483.63389143 298.53903305 483.9700079 299.16983795 C488.04445734 307.6187377 487.54465257 316.34122656 487.49900818 325.48884583 C487.50443557 327.31968745 487.51156168 329.1505247 487.52024841 330.98135376 C487.53840877 335.92959799 487.53144512 340.87750682 487.51873207 345.82575655 C487.50856961 351.01500602 487.51800646 356.20422774 487.52427673 361.39347839 C487.5315424 370.10386791 487.52199246 378.8141215 487.50291443 387.52449036 C487.48113413 397.58458987 487.48820987 407.64436522 487.51022005 417.70445693 C487.52838854 426.35612018 487.53092568 435.00768603 487.52046537 443.6593622 C487.51424019 448.82053018 487.51336828 453.9815459 487.52661133 459.14270401 C487.53819077 463.9938006 487.53010583 468.84448017 487.5070343 473.69553185 C487.50175899 475.47243623 487.50324078 477.24937589 487.51208496 479.0262661 C487.52307076 481.45816017 487.50924192 483.88873087 487.48936462 486.32054138 C487.49828751 487.01802478 487.5072104 487.71550819 487.51640368 488.43412745 C487.41690758 494.74057427 485.14857162 499.78992121 481.0868988 504.52156067 C480.45396912 505.05136536 479.82103943 505.58117004 479.16893005 506.12702942 C478.54373474 506.66972473 477.91853943 507.21242004 477.2743988 507.77156067 C469.49755233 513.00470268 462.74888222 512.68324756 453.54393005 512.50202942 C452.24004333 512.48849426 450.93615662 512.47495911 449.59275818 512.46101379 C446.38855384 512.42580276 443.18520901 512.37655036 439.98143005 512.31452942 C439.94179138 511.39679749 439.90215271 510.47906555 439.86131287 509.53352356 C435.38604828 409.93416121 405.89676546 315.24124918 303.98143005 189.31452942 C301.36049423 186.70214478 298.74901631 184.08090965 296.1493988 181.44734192 C295.15593324 180.44471396 294.1624434 179.44211003 293.16893005 178.43952942 C292.68617615 177.94839661 292.20342224 177.45726379 291.70603943 176.95124817 C263.61905026 148.68068391 228.91052494 126.3861908 194.05857849 107.44929504 C192.16243582 106.41341456 190.27775655 105.35972099 188.39549255 104.29890442 C122.86870876 68.07510933 48.80300298 55.06485924 -25.01856995 51.31452942 C-25.11815115 46.7613702 -25.19036979 42.2088579 -25.23829651 37.65486145 C-25.25829498 36.10885054 -25.28550326 34.56291415 -25.32032776 33.01716614 C-25.70276713 15.5936783 -25.70276713 15.5936783 -18.8349762 7.85359192 C-17.7192926 6.90613098 -17.7192926 6.90613098 -16.58106995 5.93952942 C-15.83985901 5.29242004 -15.09864807 4.64531067 -14.3349762 3.97859192 C-9.66309937 0.62240385 -5.69941171 0.05709423 0 0 Z " fill="#650065" transform="translate(25.018569946289063,-0.3145294189453125)"/>
<path d="M0 0 C62.72373399 0 124.34055954 13.97250553 180.07861328 43.00244141 C182.0759144 44.03941375 184.08241284 45.05701313 186.08984375 46.07421875 C202.24055776 54.34383478 217.46313407 64.15517507 232 75 C232.81476807 75.60642334 232.81476807 75.60642334 233.64599609 76.22509766 C242.03377761 82.49914828 250.10860038 89.11355417 258 96 C258.88300781 96.76957031 259.76601563 97.53914063 260.67578125 98.33203125 C267.37352686 104.33189309 273.77007347 110.64286713 280.15093994 116.97570801 C281.15816232 117.97488861 282.16686031 118.97258441 283.17718506 119.96862793 C289.92037553 126.62657551 296.11444601 133.56146582 302 141 C303.0250109 142.25451386 304.05205989 143.50736803 305.08203125 144.7578125 C353.06151521 203.67878135 381.4104743 275.58853743 389 351 C389.19722656 352.94132813 389.19722656 352.94132813 389.3984375 354.921875 C390.2284981 364.65826153 390 374.16004247 390 384 C361.29 384 332.58 384 303 384 C302.01 372.78 301.02 361.56 300 350 C297.23187442 331.46893711 293.62945647 313.83069149 288 296 C287.57847656 294.66485352 287.57847656 294.66485352 287.1484375 293.30273438 C270.98817808 243.04734817 240.2848684 195.36977953 200 161 C199.05253906 160.1646875 198.10507813 159.329375 197.12890625 158.46875 C144.56305662 112.50497052 75.18874288 87.03294633 5.69921875 85.17578125 C2 85 2 85 0 84 C0 56.28 0 28.56 0 0 Z " fill="#650065" transform="translate(0,128)"/>
<path d="M0 0 C3.20613221 -0.0130283 6.41225752 -0.02087841 9.6184082 -0.02783203 C10.97253185 -0.03342888 10.97253185 -0.03342888 12.35401154 -0.03913879 C18.70138162 -0.04945869 24.89842454 0.21647657 31.1875 1.125 C32.59986938 1.32186401 32.59986938 1.32186401 34.04077148 1.52270508 C80.9743096 8.51658622 123.78253192 29.17751289 158 62 C158.61633301 62.58378418 159.23266602 63.16756836 159.86767578 63.76904297 C170.03077945 73.43589645 178.87085102 83.57354059 187 95 C187.66805664 95.92498291 187.66805664 95.92498291 188.34960938 96.86865234 C212.27883917 130.21933759 225.89391565 171.18525818 227.57421875 212.11328125 C227.6165564 213.07061157 227.65889404 214.02794189 227.70251465 215.01428223 C227.80501585 217.34273154 227.90412845 219.67126994 228 222 C201.01835312 222.07008674 174.03671989 222.12298658 147.05500031 222.15543652 C134.52687029 222.17090417 121.99879684 222.19199186 109.47070312 222.22631836 C98.55098924 222.2562237 87.63131633 222.27557574 76.71156263 222.28226548 C70.9298543 222.28617579 65.14826317 222.29536365 59.36659241 222.31719017 C53.92313857 222.33757312 48.47985007 222.34383008 43.03636169 222.33932304 C41.04014182 222.34014743 39.04391633 222.34610222 37.04772949 222.35761642 C34.31779131 222.37258876 31.58847369 222.36893629 28.85852051 222.36076355 C28.07250599 222.36950207 27.28649148 222.3782406 26.47665834 222.38724393 C19.46511703 222.33068432 13.15948355 220.57988695 7.75 215.875 C7.12609375 215.35679687 6.5021875 214.83859375 5.859375 214.3046875 C-1.6085332 205.04824667 -0.5432665 194.63195063 -0.45410156 183.34350586 C-0.45297225 181.34220401 -0.45360858 179.3409005 -0.45587158 177.33959961 C-0.45701639 171.92486964 -0.43354465 166.51049614 -0.40557575 161.0958488 C-0.38052331 155.43041857 -0.37821706 149.76497963 -0.37347412 144.09950256 C-0.36105566 133.37931042 -0.32824924 122.65928199 -0.28807616 111.93916184 C-0.24332337 99.73122786 -0.22136257 87.52328595 -0.20129442 75.31529033 C-0.1595157 50.21010289 -0.08918552 25.10506063 0 0 Z " fill="#650065" transform="translate(0,290)"/>
<path d="M0 0 C17.85475709 -0.09353474 35.70945039 -0.1640239 53.56439972 -0.20724869 C61.85519105 -0.22785419 70.14582996 -0.25593613 78.43652344 -0.30175781 C85.6645981 -0.3416874 92.89256234 -0.36744744 100.12074423 -0.37635398 C103.94634265 -0.38155842 107.77162522 -0.39374829 111.59712219 -0.42292023 C115.20211154 -0.45018643 118.80665667 -0.45842264 122.41173935 -0.45243073 C124.35687696 -0.45404597 126.30196683 -0.47550998 128.24697876 -0.49768066 C136.44710858 -0.45921316 141.58275428 0.64602051 148.20703125 5.67578125 C148.73683594 6.21589844 149.26664063 6.75601562 149.8125 7.3125 C150.35519531 7.84488281 150.89789063 8.37726562 151.45703125 8.92578125 C156.66905498 15.93232454 156.41480719 22.64518237 156.34057617 31.09545898 C156.34101425 32.40345963 156.34145233 33.71146027 156.34190369 35.05909729 C156.34276116 38.62894207 156.32517601 42.19848179 156.30418181 45.76825595 C156.28537337 49.50516111 156.2836613 53.24207397 156.28010559 56.97901917 C156.27079732 64.04788025 156.24620015 71.11660143 156.21605712 78.18540102 C156.18247507 86.23617637 156.16601756 94.28695855 156.15097082 102.33778656 C156.11964941 118.89193948 156.06691278 135.44595186 156 152 C152.62935286 148.67829841 149.66534106 145.38728309 146.875 141.5625 C132.42830814 122.02826882 116.8996251 103.29996103 100.37646484 85.48974609 C98.94803782 83.9437614 97.52947547 82.38922563 96.11328125 80.83203125 C89.46372476 73.52293076 82.77639391 66.44831952 75.27734375 60 C73.10208757 58.08965495 70.98479421 56.12591477 68.87182617 54.1472168 C63.52355559 49.15485787 57.99532434 44.52060025 52.20361328 40.05126953 C48.46731066 37.16687257 44.83889692 34.19340773 41.25 31.125 C31.97345072 23.33910472 21.97785882 16.48434259 12.06640625 9.5390625 C10.88534302 8.71027588 10.88534302 8.71027588 9.68041992 7.86474609 C8.16618649 6.80415731 6.64949017 5.74707453 5.13012695 4.69384766 C3.40276445 3.48698385 1.69857463 2.2470548 0 1 C0 0.67 0 0.34 0 0 Z " fill="#650065" transform="translate(356,0)"/>
</svg>
