<?xml version="1.0" encoding="UTF-8"?>
<svg version="1.1" xmlns="http://www.w3.org/2000/svg" width="1280" height="260">
<path d="M0 0 C18.81 0 37.62 0 57 0 C60.63 4.62 64.26 9.24 68 14 C70.15858393 16.67435178 72.32053865 19.3430467 74.5 22 C78.53326747 26.93846272 82.518075 31.9082581 86.4375 36.9375 C91.19232178 43.03365059 96.09030165 49.00476228 101.01708984 54.96240234 C104.68372768 59.39692245 108.31095116 63.85809345 111.890625 68.36328125 C114.67525684 71.84407105 117.49574972 75.29518783 120.3125 78.75 C124.40577197 83.77350767 128.45381992 88.82669754 132.4375 93.9375 C136.53943612 99.19751446 140.74577866 104.36250156 145 109.5 C149.71430735 115.1931092 154.34559651 120.93762816 158.89111328 126.76611328 C164.4878411 133.92984327 170.25169014 140.95781501 176 148 C182.66041147 156.15958966 189.28860727 164.33533655 195.76611328 172.64111328 C200.01360837 178.06413134 204.40381037 183.3653179 208.79736328 188.67016602 C213.00261087 193.75887383 217.11137956 198.91349234 221.17236328 204.11767578 C224.57515461 208.47440345 228.05120943 212.76517612 231.5625 217.03515625 C238.84899504 225.89805647 246.09172501 234.79589421 253.1875 243.8125 C253.87368408 244.68322144 253.87368408 244.68322144 254.57373047 245.5715332 C256.4775224 248.00077171 258.28681887 250.43022831 260 253 C260.33 169.51 260.66 86.02 261 0 C334.92 0 408.84 0 485 0 C485 13.86 485 27.72 485 42 C425.93 42 366.86 42 306 42 C306 63.45 306 84.9 306 107 C353.52 107 401.04 107 450 107 C450 120.86 450 134.72 450 149 C402.48 149 354.96 149 306 149 C306 171.11 306 193.22 306 216 C365.07 216 424.14 216 485 216 C485 229.86 485 243.72 485 258 C449.67862142 258.36202901 414.35784052 258.6483264 379.03499587 258.81704527 C374.8608112 258.83705555 370.68663026 258.8577648 366.51245117 258.87890625 C365.68147969 258.88310322 364.8505082 258.88730018 363.99435576 258.89162433 C350.55541253 258.96116536 337.11756918 259.08727079 323.67927752 259.23444474 C309.880702 259.38429919 296.08270072 259.47298774 282.28334492 259.50541592 C273.77396983 259.52732528 265.2677035 259.59639496 256.75928607 259.72666347 C250.91723096 259.81152853 245.07677226 259.83674022 239.23414616 259.81602204 C235.86523937 259.80580845 232.5060812 259.82977649 229.13741112 259.9072876 C207.91820441 260.37144909 207.91820441 260.37144909 201.63542747 254.55978394 C198.7266767 251.29634256 196.40097939 247.81005286 194.22050416 244.02979851 C192.28679015 240.81387353 189.92745211 237.96688222 187.5625 235.0625 C186.66597872 233.91952689 185.77122514 232.77516317 184.87890625 231.62890625 C181.6507619 227.53238542 178.32629764 223.5169158 175 219.5 C170.28569265 213.8068908 165.65440349 208.06237184 161.10888672 202.23388672 C155.5121589 195.07015673 149.74830986 188.04218499 144 181 C137.31769318 172.81358661 130.66608723 164.61093609 124.15917969 156.28417969 C118.53950615 149.10866286 112.76314122 142.06035472 107 135 C100.22278781 126.69731918 93.47942765 118.37595657 86.87792969 109.93261719 C83.45554194 105.5616464 79.96356315 101.2527884 76.4375 96.96484375 C68.29398557 87.05951129 60.23338127 77.09414679 52.33984375 66.98828125 C50.24407519 64.31171539 48.1236187 61.65452337 46 59 C45.67 124.67 45.34 190.34 45 258 C30.15 258 15.3 258 0 258 C0 172.86 0 87.72 0 0 Z " fill="#000000" transform="translate(0,0)"/>
<path d="M0 0 C7.63149109 -0.32622829 15.26225064 -0.57403094 22.8991518 -0.72537041 C26.447094 -0.7980692 29.99022765 -0.89636817 33.53540039 -1.05615234 C58.35410702 -2.14541882 58.35410702 -2.14541882 64.12646484 2.87988281 C66.64183255 5.74313821 68.44975747 8.85844126 70.11410522 12.27484131 C71.34444345 14.67075643 72.97540728 16.57939873 74.75 18.59375 C75.55920898 19.56828125 75.55920898 19.56828125 76.38476562 20.5625 C76.91779297 21.201875 77.45082031 21.84125 78 22.5 C82.69473804 28.16447082 87.29792826 33.8857654 91.81640625 39.69140625 C95.46485363 44.36099342 99.22024059 48.93632073 103 53.5 C107.72481931 59.20686566 112.375386 64.96001032 116.93286133 70.80126953 C122.22546368 77.58453791 127.61505782 84.28996733 133 91 C136.65645675 87.48041596 139.8519271 83.78207834 142.9375 79.75 C147.26145017 74.1710002 151.68751356 68.68793543 156.1875 63.25 C160.46485873 58.07842989 164.71541654 52.89141486 168.890625 47.63671875 C171.11883446 44.85145693 173.3698553 42.08574447 175.6237793 39.32128906 C180.84599517 32.91601518 186.01189349 26.47362949 191.09887695 19.96044922 C194.70574706 15.35052444 198.39523889 10.81605296 202.125 6.3046875 C204.00587352 4.10748617 204.00587352 4.10748617 205.25740051 1.88433838 C207 0 207 0 209.60063171 -0.48101807 C211.16283195 -0.4676944 211.16283195 -0.4676944 212.7565918 -0.45410156 C214.52808846 -0.45364838 214.52808846 -0.45364838 216.33537292 -0.45318604 C217.61044205 -0.43254089 218.88551117 -0.41189575 220.19921875 -0.390625 C222.15720146 -0.38213531 222.15720146 -0.38213531 224.15473938 -0.37347412 C227.62218946 -0.35821392 231.08896749 -0.31893032 234.55615234 -0.2746582 C238.09528512 -0.23371291 241.63452668 -0.21546479 245.17382812 -0.1953125 C252.11616119 -0.15243532 259.05804832 -0.08418015 266 0 C264.18568138 3.81175708 261.81348159 6.96590546 259.1875 10.25 C258.70394043 10.8598877 258.22038086 11.46977539 257.72216797 12.09814453 C251.33088107 20.13669133 244.82789627 28.08540257 238.33398438 36.04101562 C232.66800794 42.98533222 227.01873127 49.93779253 221.5 57 C214.89987953 65.44603909 208.11186527 73.73751558 201.33398438 82.04101562 C195.21628204 89.53897512 189.12333475 97.04994679 183.18554688 104.69165039 C180.66363851 107.92573017 178.09161114 111.10742812 175.4609375 114.25390625 C174.86474609 114.97126953 174.26855469 115.68863281 173.65429688 116.42773438 C172.49412457 117.81968644 171.32647397 119.20544954 170.15039062 120.58398438 C166.08420908 125.20213053 166.08420908 125.20213053 165 131 C166.50815655 133.22851588 167.93093838 134.99409897 169.75 136.9375 C170.77579077 138.08774942 171.7991556 139.24016605 172.8203125 140.39453125 C173.34915039 140.9870166 173.87798828 141.57950195 174.42285156 142.18994141 C176.9395685 145.07832211 179.28104295 148.0960338 181.625 151.125 C185.53924179 156.15063384 189.51624019 161.1146153 193.5625 166.03515625 C200.60553329 174.6019227 207.61779655 183.19147631 214.4375 191.9375 C218.53954071 197.19743561 222.74577574 202.36249803 227 207.5 C231.71064042 213.18868092 236.33963869 218.92777854 240.88012695 224.75292969 C244.42848257 229.29659547 248.04645816 233.78035419 251.6875 238.25 C252.2350293 238.92313232 252.78255859 239.59626465 253.34667969 240.28979492 C255.75838531 243.2533624 258.17440374 246.21313844 260.6015625 249.1640625 C261.33117187 250.05867187 262.06078125 250.95328125 262.8125 251.875 C263.43769531 252.63554687 264.06289063 253.39609375 264.70703125 254.1796875 C266 256 266 256 266 258 C258.49870181 258.30297759 250.99804616 258.53305851 243.49199963 258.67355824 C240.00490016 258.74104958 236.52202204 258.83231315 233.03735352 258.98071289 C208.65321388 259.99211788 208.65321388 259.99211788 202.84545898 255.28564453 C199.90284686 252.18885175 197.97236027 248.77127389 196 245 C195.03790919 243.72874459 194.04879425 242.47648563 193.01171875 241.265625 C192.24472656 240.27046875 191.47773437 239.2753125 190.6875 238.25 C186.55011994 232.92183214 182.30390151 227.69442423 178 222.5 C173.28684456 216.80865451 168.65546731 211.06675008 164.11328125 205.23828125 C160.63146131 200.77910835 157.07757644 196.38260975 153.5 192 C149.46789171 187.06057874 145.48189147 182.09180764 141.5625 177.0625 C136.87934896 171.05704749 132.04918345 165.18149691 127.19165039 159.31665039 C123.10748266 154.37465665 119.12108479 149.36774396 115.18359375 144.30859375 C111.53514769 139.63900827 107.77981058 135.06363521 104 130.5 C99.28562843 124.80694554 94.65440196 119.06236987 90.10888672 113.23388672 C84.5121589 106.07015673 78.74830986 99.04218499 73 92 C66.22278781 83.69731918 59.47942765 75.37595657 52.87792969 66.93261719 C49.45554194 62.5616464 45.96356315 58.2527884 42.4375 53.96484375 C34.92169834 44.8230273 27.45873125 35.64324845 20.18212891 26.30957031 C17.6667872 23.09220875 15.11804605 19.90639101 12.53125 16.74609375 C11.94408203 16.02873047 11.35691406 15.31136719 10.75195312 14.57226562 C9.61297978 13.18441962 8.47120141 11.79886926 7.32617188 10.41601562 C6.80603516 9.78244141 6.28589844 9.14886719 5.75 8.49609375 C5.29109375 7.94107178 4.8321875 7.3860498 4.359375 6.81420898 C2.72904866 4.63839092 1.38583921 2.33736332 0 0 Z " fill="#000000" transform="translate(537,0)"/>
<path d="M0 0 C73.92 0 147.84 0 224 0 C224 13.86 224 27.72 224 42 C194.96 42 165.92 42 136 42 C136 113.28 136 184.56 136 258 C121.15 258 106.3 258 91 258 C91 186.72 91 115.44 91 42 C60.97 42 30.94 42 0 42 C0 28.14 0 14.28 0 0 Z " fill="#000000" transform="translate(850,0)"/>
<path d="M0 0 C4.19395123 1.53649365 6.2967636 4.60754893 8.875 8.0625 C12.09801568 12.29502025 15.36125218 16.46813199 18.796875 20.53125 C19.43254395 21.285271 20.06821289 22.03929199 20.72314453 22.81616211 C21.97236363 24.29165183 23.22836656 25.76142984 24.49169922 27.22485352 C26.73501349 29.88898652 28.69437161 32.40178833 30.28125 35.5078125 C29.78875174 39.87189434 26.70753496 42.61226443 23.875 45.8125 C22.57353369 47.3353523 21.27276831 48.85880387 19.97265625 50.3828125 C19.30766113 51.15270508 18.64266602 51.92259766 17.95751953 52.71582031 C15.01091453 56.15413865 12.159025 59.66625274 9.3125 63.1875 C8.5078833 64.17810425 8.5078833 64.17810425 7.68701172 65.1887207 C3.79619381 69.98684373 -0.02760684 74.8346288 -3.83007812 79.70288086 C-7.9006408 84.90259635 -12.05802626 90.02955867 -16.234375 95.14453125 C-16.73839844 95.76199219 -17.24242187 96.37945312 -17.76171875 97.015625 C-18.25850632 97.60463593 -18.75529388 98.19364685 -19.26713562 98.80050659 C-21.06209892 100.99619735 -21.06209892 100.99619735 -22.58503723 103.54226685 C-25.23912869 107.52775983 -27.27554062 110.49391029 -31.99272156 111.8782959 C-35.59715352 112.15630533 -39.07542316 112.1257942 -42.6875 111.9765625 C-43.98574707 111.96241302 -45.28399414 111.94826355 -46.62158203 111.9336853 C-50.04955742 111.89576048 -53.47319681 111.79779403 -56.8994751 111.68664551 C-60.40504288 111.58376527 -63.91132186 111.53855496 -67.41796875 111.48828125 C-74.28041122 111.38149744 -81.13999674 111.2111669 -88 111 C-86.18567032 107.18821969 -83.81337761 104.03419622 -81.1875 100.75 C-80.70539062 100.1415625 -80.22328125 99.533125 -79.7265625 98.90625 C-75.47422376 93.55548105 -71.15789534 88.2566434 -66.83642578 82.96166992 C-63.36253404 78.69909699 -59.94259703 74.39969885 -56.5625 70.0625 C-51.80767822 63.96634941 -46.90969835 57.99523772 -41.98291016 52.03759766 C-38.31627232 47.60307755 -34.68904884 43.14190655 -31.109375 38.63671875 C-28.88084012 35.85105015 -26.62948187 33.08494009 -24.37524414 30.32006836 C-19.08165774 23.82732728 -13.83612791 17.30297644 -8.69018555 10.69238281 C-5.86236416 7.06598157 -2.95904738 3.51915278 0 0 Z " fill="#000000" transform="translate(625,148)"/>
<path d="M0 0 C7.46731894 5.22572226 12.88866476 11.54174974 14.64453125 20.64453125 C14.64453125 22.62453125 14.64453125 24.60453125 14.64453125 26.64453125 C8.04453125 26.64453125 1.44453125 26.64453125 -5.35546875 26.64453125 C-6.67546875 23.67453125 -7.99546875 20.70453125 -9.35546875 17.64453125 C-16.09447046 12.8309586 -22.26255633 11.96404612 -30.35546875 12.64453125 C-35.36686604 13.80758591 -39.06610285 15.56571753 -42.35546875 19.64453125 C-43.86765545 22.66890464 -43.52810244 25.30694659 -43.35546875 28.64453125 C-42.04529623 32.33358654 -40.38663867 33.52398883 -36.91015625 35.20703125 C-31.57551614 37.71249239 -26.18837936 39.24535674 -20.48046875 40.64453125 C6.11960001 47.58938775 6.11960001 47.58938775 13.64453125 60.08203125 C16.99708718 67.51447729 16.95047769 76.63608773 14.91015625 84.4609375 C11.6331901 92.39817927 6.24352381 97.81779844 -1.35546875 101.64453125 C-15.28257646 107.33340067 -33.2272895 107.98279625 -47.35546875 102.64453125 C-55.79717986 99.01526017 -62.74686696 93.37175223 -66.64453125 84.91015625 C-68.01036265 80.55750675 -68.12853517 76.18320292 -68.35546875 71.64453125 C-61.75546875 71.64453125 -55.15546875 71.64453125 -48.35546875 71.64453125 C-47.65421875 73.21203125 -46.95296875 74.77953125 -46.23046875 76.39453125 C-43.87558118 81.00022296 -42.25696613 83.54388952 -37.35546875 85.64453125 C-28.74945138 87.83055171 -20.36683362 88.72842847 -12.25390625 84.56640625 C-9.44612111 82.74076817 -7.65054813 81.11174028 -5.85546875 78.26953125 C-5.00588964 73.80924092 -5.93807816 69.89670302 -7.35546875 65.64453125 C-9.56644879 64.51038922 -9.56644879 64.51038922 -12.35546875 63.64453125 C-13.96035156 63.07605469 -13.96035156 63.07605469 -15.59765625 62.49609375 C-22.04562953 60.3190361 -28.43316309 58.33395561 -35.04296875 56.70703125 C-46.09471876 53.83403963 -57.2284081 49.39889601 -63.23046875 39.20703125 C-66.62588449 31.87950502 -66.68682121 23.12427686 -64.41796875 15.39453125 C-60.69646505 7.3080863 -53.95876123 1.27888263 -46.0078125 -2.41796875 C-31.57994238 -7.51765775 -13.50534079 -7.7717301 0 0 Z " fill="#000000" transform="translate(1264.35546875,151.35546875)"/>
<path d="M0 0 C6.6 0 13.2 0 20 0 C20.09059645 10.90990337 20.16388604 21.8195543 20.20724869 32.72974968 C20.22806721 37.79653852 20.2562795 42.86305523 20.30175781 47.9296875 C20.34542084 52.82507097 20.36918019 57.72019372 20.37950897 62.61575699 C20.38686376 64.4775617 20.40122553 66.33935316 20.42292023 68.20104599 C20.56410707 80.82609317 20.31315279 91.44613783 11.1953125 101.17578125 C1.33383919 109.37027954 -9.60244768 110.91120726 -22 110 C-31.75262566 108.10786087 -39.9246693 104.6063066 -45.875 96.4375 C-48.98757388 91.06123602 -49.30374362 85.07641933 -50 79 C-43.07 79 -36.14 79 -29 79 C-28.01 81.64 -27.02 84.28 -26 87 C-22.13458541 90.86541459 -20.6045618 91.87059985 -15.125 92.3125 C-11.12101545 92.19320065 -8.36624233 91.27025645 -5 89 C-1.02507943 83.65441716 -0.84551631 78.68279862 -0.79467773 72.20214844 C-0.78477814 71.42127869 -0.77487854 70.64040894 -0.76467896 69.83587646 C-0.73314627 67.26040659 -0.70833914 64.68491829 -0.68359375 62.109375 C-0.66301711 60.32146735 -0.64202045 58.53356449 -0.62062073 56.7456665 C-0.56547337 52.04394411 -0.51603177 47.34217834 -0.46777344 42.64038086 C-0.41750482 37.84094389 -0.36184675 33.04156977 -0.30664062 28.2421875 C-0.19914877 18.82817673 -0.09818206 9.41411247 0 0 Z " fill="#000000" transform="translate(1159,147)"/>
<path d="M0 0 C3.18500291 1.62145603 5.22111096 2.97328264 7.375 5.8125 C8.59875016 10.09562557 8.59895652 13.68229565 6.75 17.75 C3.97581239 21.31681264 2.10527017 22.70804184 -2.3125 23.875 C-6.72533606 24.02458766 -9.16140096 23.14075716 -13 21 C-16.43054082 17.2889243 -16.55974367 14.3720259 -16.4296875 9.48046875 C-15.73257257 5.45621441 -13.96066221 3.74918634 -11 1 C-7.52817697 -0.73591152 -3.79591036 -0.46571673 0 0 Z " fill="#000000" transform="translate(1088,233)"/>
</svg>
